ISO-10303-21;
HEADER;
FILE_DESCRIPTION (( 'STEP AP214' ),
    '1' );
FILE_NAME ('handle2.STEP',
    '2026-04-07T08:57:06',
    ( '' ),
    ( '' ),
    'SwSTEP 2.0',
    'SolidWorks 2021',
    '' );
FILE_SCHEMA (( 'AUTOMOTIVE_DESIGN' ));
ENDSEC;

DATA;
#1 = CYLINDRICAL_SURFACE ( 'NONE', #697, 0.9799999999999988720 ) ;
#2 = DIRECTION ( 'NONE',  ( 0.7071067811865466846, 0.000000000000000000, 0.7071067811865484609 ) ) ;
#3 = ORIENTED_EDGE ( 'NONE', *, *, #825, .T. ) ;
#4 = FACE_OUTER_BOUND ( 'NONE', #839, .T. ) ;
#5 = DIRECTION ( 'NONE',  ( 1.000000000000000000, 0.000000000000000000, 0.000000000000000000 ) ) ;
#6 =( LENGTH_UNIT ( ) NAMED_UNIT ( * ) SI_UNIT ( .MILLI., .METRE. ) );
#7 = CIRCLE ( 'NONE', #896, 0.9799999999999999822 ) ;
#8 = AXIS2_PLACEMENT_3D ( 'NONE', #848, #478, #778 ) ;
#9 = ORIENTED_EDGE ( 'NONE', *, *, #40, .T. ) ;
#10 = CYLINDRICAL_SURFACE ( 'NONE', #499, 0.9799999999999988720 ) ;
#11 = EDGE_CURVE ( 'NONE', #260, #935, #572, .T. ) ;
#12 = ORIENTED_EDGE ( 'NONE', *, *, #426, .F. ) ;
#13 = CARTESIAN_POINT ( 'NONE',  ( 89.99999999999997158, -0.9849999999999993205, 3.499999999999999112 ) ) ;
#14 = ORIENTED_EDGE ( 'NONE', *, *, #151, .T. ) ;
#15 = VERTEX_POINT ( 'NONE', #692 ) ;
#16 = LINE ( 'NONE', #742, #29 ) ;
#17 = CIRCLE ( 'NONE', #911, 37.51999999999999602 ) ;
#18 = ADVANCED_FACE ( 'NONE', ( #922 ), #916, .T. ) ;
#19 = ORIENTED_EDGE ( 'NONE', *, *, #141, .T. ) ;
#20 = ADVANCED_FACE ( 'NONE', ( #776 ), #703, .T. ) ;
#21 = ORIENTED_EDGE ( 'NONE', *, *, #859, .F. ) ;
#22 = ORIENTED_EDGE ( 'NONE', *, *, #596, .F. ) ;
#23 = FILL_AREA_STYLE_COLOUR ( '', #538 ) ;
#24 = VERTEX_POINT ( 'NONE', #274 ) ;
#25 = VERTEX_POINT ( 'NONE', #564 ) ;
#26 = ORIENTED_EDGE ( 'NONE', *, *, #678, .T. ) ;
#27 = FACE_OUTER_BOUND ( 'NONE', #453, .T. ) ;
#28 = DIRECTION ( 'NONE',  ( 0.000000000000000000, 1.000000000000000000, -0.000000000000000000 ) ) ;
#29 = VECTOR ( 'NONE', #391, 1000.000000000000114 ) ;
#30 = ADVANCED_FACE ( 'NONE', ( #847 ), #870, .T. ) ;
#31 = ORIENTED_EDGE ( 'NONE', *, *, #562, .F. ) ;
#32 = DIRECTION ( 'NONE',  ( -1.000000000000000000, 0.000000000000000000, -0.000000000000000000 ) ) ;
#33 = DIRECTION ( 'NONE',  ( -0.000000000000000000, -1.000000000000000000, 0.000000000000000000 ) ) ;
#34 = ORIENTED_EDGE ( 'NONE', *, *, #582, .F. ) ;
#35 = AXIS2_PLACEMENT_3D ( 'NONE', #592, #804, #134 ) ;
#36 = STYLED_ITEM ( 'NONE', ( #585 ), #271 ) ;
#37 = CIRCLE ( 'NONE', #588, 0.9799999999999999822 ) ;
#38 = VERTEX_POINT ( 'NONE', #755 ) ;
#39 = LINE ( 'NONE', #905, #680 ) ;
#40 = EDGE_CURVE ( 'NONE', #253, #813, #299, .T. ) ;
#41 = CARTESIAN_POINT ( 'NONE',  ( 90.00000000000000000, -0.9849999999999995426, 35.00000000000000000 ) ) ;
#42 = VERTEX_POINT ( 'NONE', #144 ) ;
#43 = CARTESIAN_POINT ( 'NONE',  ( 89.99999999999997158, 0.005000000000000229955, -2.520000000000000906 ) ) ;
#44 = DIRECTION ( 'NONE',  ( -0.000000000000000000, -6.195440985631454085E-17, -1.000000000000000000 ) ) ;
#45 = DIRECTION ( 'NONE',  ( -0.000000000000000000, -1.000000000000000000, 0.000000000000000000 ) ) ;
#46 = CARTESIAN_POINT ( 'NONE',  ( 117.2236110756821290, -0.004999999999999796274, 7.776388924317967799 ) ) ;
#47 = PLANE ( 'NONE',  #670 ) ;
#48 = EDGE_CURVE ( 'NONE', #178, #828, #590, .T. ) ;
#49 = AXIS2_PLACEMENT_3D ( 'NONE', #71, #441, #520 ) ;
#50 = EDGE_LOOP ( 'NONE', ( #563, #62, #240, #949 ) ) ;
#51 = ADVANCED_FACE ( 'NONE', ( #503 ), #137, .T. ) ;
#52 = VECTOR ( 'NONE', #800, 1000.000000000000114 ) ;
#53 = DIRECTION ( 'NONE',  ( -1.000000000000000000, -0.000000000000000000, -0.000000000000000000 ) ) ;
#54 =( NAMED_UNIT ( * ) SI_UNIT ( $, .STERADIAN. ) SOLID_ANGLE_UNIT ( ) );
#55 = AXIS2_PLACEMENT_3D ( 'NONE', #424, #644, #292 ) ;
#56 = SURFACE_STYLE_FILL_AREA ( #714 ) ;
#57 = VERTEX_POINT ( 'NONE', #436 ) ;
#58 = EDGE_CURVE ( 'NONE', #15, #42, #707, .T. ) ;
#59 = CARTESIAN_POINT ( 'NONE',  ( 117.2236110756821290, -0.9849999999999997646, 7.776388924317970464 ) ) ;
#60 = CARTESIAN_POINT ( 'NONE',  ( 5.551115123125782702E-14, 1.005000000000000782, 0.2999999999999998224 ) ) ;
#61 = DIRECTION ( 'NONE',  ( 0.000000000000000000, 1.000000000000000000, 0.000000000000000000 ) ) ;
#62 = ORIENTED_EDGE ( 'NONE', *, *, #691, .T. ) ;
#63 = CARTESIAN_POINT ( 'NONE',  ( 0.3020426697766381285, 1.903459816837576479, 0.2999999999999998224 ) ) ;
#64 = AXIS2_PLACEMENT_3D ( 'NONE', #733, #88, #166 ) ;
#65 = CARTESIAN_POINT ( 'NONE',  ( 1.487306110593891617, 1.005000000000000782, -0.3000000000000001554 ) ) ;
#66 = DIRECTION ( 'NONE',  ( 0.000000000000000000, 0.000000000000000000, 1.000000000000000000 ) ) ;
#67 = DIRECTION ( 'NONE',  ( 0.000000000000000000, 0.000000000000000000, 1.000000000000000000 ) ) ;
#68 = DIRECTION ( 'NONE',  ( -0.000000000000000000, -6.195440985631454085E-17, -1.000000000000000000 ) ) ;
#69 =( GEOMETRIC_REPRESENTATION_CONTEXT ( 3 ) GLOBAL_UNCERTAINTY_ASSIGNED_CONTEXT ( ( #557 ) ) GLOBAL_UNIT_ASSIGNED_CONTEXT ( ( #6, #313, #528 ) ) REPRESENTATION_CONTEXT ( 'NONE', 'WORKASPACE' ) );
#70 = CLOSED_SHELL ( 'NONE', ( #842, #929, #783, #775, #228, #78, #513, #918, #199, #51, #202, #704, #73, #188, #519, #700, #666, #486, #264, #20, #263, #30, #710, #454, #357, #608 ) ) ;
#71 = CARTESIAN_POINT ( 'NONE',  ( 0.000000000000000000, -0.004999999999999952399, -2.520000000000001350 ) ) ;
#72 = CIRCLE ( 'NONE', #613, 0.9799999999999995381 ) ;
#73 = ADVANCED_FACE ( 'NONE', ( #857 ), #656, .T. ) ;
#74 = ORIENTED_EDGE ( 'NONE', *, *, #736, .T. ) ;
#75 = LINE ( 'NONE', #604, #933 ) ;
#76 = DIRECTION ( 'NONE',  ( 0.7071067811865465735, 0.000000000000000000, 0.7071067811865483499 ) ) ;
#77 = LINE ( 'NONE', #720, #869 ) ;
#78 = ADVANCED_FACE ( 'NONE', ( #937 ), #431, .F. ) ;
#79 = VERTEX_POINT ( 'NONE', #427 ) ;
#80 = VERTEX_POINT ( 'NONE', #497 ) ;
#81 = DIRECTION ( 'NONE',  ( 1.000000000000000000, 0.000000000000000000, 0.000000000000000000 ) ) ;
#82 = VECTOR ( 'NONE', #76, 1000.000000000000114 ) ;
#83 = FACE_OUTER_BOUND ( 'NONE', #879, .T. ) ;
#84 =( NAMED_UNIT ( * ) SI_UNIT ( $, .STERADIAN. ) SOLID_ANGLE_UNIT ( ) );
#85 = EDGE_CURVE ( 'NONE', #172, #477, #594, .T. ) ;
#86 = ORIENTED_EDGE ( 'NONE', *, *, #617, .T. ) ;
#87 = ADVANCED_FACE ( 'NONE', ( #214 ), #584, .F. ) ;
#88 = DIRECTION ( 'NONE',  ( -0.000000000000000000, -1.000000000000000000, 0.000000000000000000 ) ) ;
#89 = CARTESIAN_POINT ( 'NONE',  ( 0.000000000000000000, 0.005000000000000229955, -3.500000000000000888 ) ) ;
#90 = VECTOR ( 'NONE', #44, 1000.000000000000000 ) ;
#91 = CARTESIAN_POINT ( 'NONE',  ( 0.000000000000000000, 0.000000000000000000, 0.000000000000000000 ) ) ;
#92 = AXIS2_PLACEMENT_3D ( 'NONE', #269, #279, #200 ) ;
#93 = VERTEX_POINT ( 'NONE', #939 ) ;
#94 = EDGE_CURVE ( 'NONE', #856, #106, #208, .T. ) ;
#95 = CARTESIAN_POINT ( 'NONE',  ( 112.2738636073762848, -0.9849999999999993205, 12.72613639262379337 ) ) ;
#96 = DIRECTION ( 'NONE',  ( 0.000000000000000000, 0.000000000000000000, 1.000000000000000000 ) ) ;
#97 = ORIENTED_EDGE ( 'NONE', *, *, #936, .T. ) ;
#98 = CARTESIAN_POINT ( 'NONE',  ( 117.2236110756821290, 0.005000000000000229955, 7.776388924317967799 ) ) ;
#99 = ADVANCED_FACE ( 'NONE', ( #359 ), #493, .T. ) ;
#100 = EDGE_LOOP ( 'NONE', ( #234, #818, #250, #766 ) ) ;
#101 = VERTEX_POINT ( 'NONE', #721 ) ;
#102 = FACE_OUTER_BOUND ( 'NONE', #925, .T. ) ;
#103 = EDGE_CURVE ( 'NONE', #536, #38, #790, .T. ) ;
#104 = TOROIDAL_SURFACE ( 'NONE', #139, 32.48000000000001108, 0.9799999999999999822 ) ;
#105 = AXIS2_PLACEMENT_3D ( 'NONE', #201, #591, #498 ) ;
#106 = VERTEX_POINT ( 'NONE', #372 ) ;
#107 = ORIENTED_EDGE ( 'NONE', *, *, #747, .F. ) ;
#108 = DIRECTION ( 'NONE',  ( 0.000000000000000000, -0.000000000000000000, -1.000000000000000000 ) ) ;
#109 = FACE_OUTER_BOUND ( 'NONE', #634, .T. ) ;
#110 = PRODUCT_DEFINITION_CONTEXT ( 'detailed design', #862, 'design' ) ;
#111 = EDGE_LOOP ( 'NONE', ( #273, #765, #502, #568 ) ) ;
#112 = DIRECTION ( 'NONE',  ( -1.000000000000000000, -0.000000000000000000, -0.000000000000000000 ) ) ;
#113 = DIRECTION ( 'NONE',  ( 0.000000000000000000, 1.000000000000000000, 0.000000000000000000 ) ) ;
#114 = CARTESIAN_POINT ( 'NONE',  ( 1.487306110593891617, 1.005000000000000782, 0.2999999999999998224 ) ) ;
#115 = CIRCLE ( 'NONE', #648, 0.5000000000000000000 ) ;
#116 = ORIENTED_EDGE ( 'NONE', *, *, #158, .F. ) ;
#117 = FACE_OUTER_BOUND ( 'NONE', #886, .T. ) ;
#118 = LINE ( 'NONE', #495, #90 ) ;
#119 = VERTEX_POINT ( 'NONE', #219 ) ;
#120 = CIRCLE ( 'NONE', #455, 0.9799999999999999822 ) ;
#121 = MECHANICAL_DESIGN_GEOMETRIC_PRESENTATION_REPRESENTATION (  '', ( #36 ), #216 ) ;
#122 = AXIS2_PLACEMENT_3D ( 'NONE', #530, #595, #524 ) ;
#123 = ORIENTED_EDGE ( 'NONE', *, *, #543, .F. ) ;
#124 = CARTESIAN_POINT ( 'NONE',  ( 0.000000000000000000, 0.9850000000000002087, -3.500000000000000888 ) ) ;
#125 = DIRECTION ( 'NONE',  ( -0.000000000000000000, -1.000000000000000000, -0.000000000000000000 ) ) ;
#126 = CARTESIAN_POINT ( 'NONE',  ( 5.551115123125782702E-14, 1.505000000000000782, -0.3000000000000001554 ) ) ;
#127 = SURFACE_STYLE_USAGE ( .BOTH. , #439 ) ;
#128 = DIRECTION ( 'NONE',  ( 0.000000000000000000, 0.000000000000000000, 1.000000000000000000 ) ) ;
#129 = EDGE_CURVE ( 'NONE', #813, #681, #781, .T. ) ;
#130 = VECTOR ( 'NONE', #614, 1000.000000000000000 ) ;
#131 = ORIENTED_EDGE ( 'NONE', *, *, #628, .T. ) ;
#132 = CARTESIAN_POINT ( 'NONE',  ( 112.9668282529391092, -0.9849999999999993205, 12.03317174706098136 ) ) ;
#133 = CARTESIAN_POINT ( 'NONE',  ( 116.5306464301193188, 0.005000000000000229955, 8.469353569880786026 ) ) ;
#134 = DIRECTION ( 'NONE',  ( 0.7071067811865475727, 0.000000000000000000, -0.7071067811865475727 ) ) ;
#135 = EDGE_LOOP ( 'NONE', ( #315, #616, #177, #921 ) ) ;
#136 = TOROIDAL_SURFACE ( 'NONE', #371, 32.48000000000001108, 0.9799999999999999822 ) ;
#137 = PLANE ( 'NONE',  #642 ) ;
#138 = DIRECTION ( 'NONE',  ( 0.000000000000000000, 0.000000000000000000, 1.000000000000000000 ) ) ;
#139 = AXIS2_PLACEMENT_3D ( 'NONE', #635, #927, #544 ) ;
#140 = DIRECTION ( 'NONE',  ( 0.000000000000000000, 0.000000000000000000, 1.000000000000000000 ) ) ;
#141 = EDGE_CURVE ( 'NONE', #385, #335, #367, .T. ) ;
#142 = DIRECTION ( 'NONE',  ( 0.7071067811865483499, 0.000000000000000000, -0.7071067811865465735 ) ) ;
#143 = DIRECTION ( 'NONE',  ( 0.000000000000000000, 0.000000000000000000, 1.000000000000000000 ) ) ;
#144 = CARTESIAN_POINT ( 'NONE',  ( 1.487306110593891617, 1.005000000000000782, -0.3000000000000001554 ) ) ;
#145 = DIRECTION ( 'NONE',  ( 0.000000000000000000, 1.000000000000000000, -0.000000000000000000 ) ) ;
#146 = DIRECTION ( 'NONE',  ( 0.7071067811865466846, 0.000000000000000000, 0.7071067811865484609 ) ) ;
#147 = ORIENTED_EDGE ( 'NONE', *, *, #238, .F. ) ;
#148 = CARTESIAN_POINT ( 'NONE',  ( 0.000000000000000000, 0.9850000000000002087, -3.500000000000000888 ) ) ;
#149 = VECTOR ( 'NONE', #798, 1000.000000000000000 ) ;
#150 = CARTESIAN_POINT ( 'NONE',  ( 112.9668282529391092, -0.004999999999999362593, 12.03317174706097958 ) ) ;
#151 = EDGE_CURVE ( 'NONE', #80, #222, #248, .T. ) ;
#152 = CARTESIAN_POINT ( 'NONE',  ( 90.00000000000000000, -0.004999999999999579434, 35.00000000000000000 ) ) ;
#153 = AXIS2_PLACEMENT_3D ( 'NONE', #815, #246, #378 ) ;
#154 = EDGE_LOOP ( 'NONE', ( #717, #339, #74 ) ) ;
#155 = CARTESIAN_POINT ( 'NONE',  ( 90.00000000000000000, 0.005000000000000229955, 35.00000000000000000 ) ) ;
#156 = DIRECTION ( 'NONE',  ( -0.000000000000000000, -1.000000000000000000, -0.000000000000000000 ) ) ;
#157 = FACE_OUTER_BOUND ( 'NONE', #390, .T. ) ;
#158 = EDGE_CURVE ( 'NONE', #679, #385, #915, .T. ) ;
#159 = VERTEX_POINT ( 'NONE', #465 ) ;
#160 = FACE_BOUND ( 'NONE', #345, .T. ) ;
#161 = LINE ( 'NONE', #819, #724 ) ;
#162 = DIRECTION ( 'NONE',  ( 0.000000000000000000, 0.000000000000000000, -1.000000000000000000 ) ) ;
#163 = EDGE_CURVE ( 'NONE', #496, #856, #589, .T. ) ;
#164 = VERTEX_POINT ( 'NONE', #844 ) ;
#165 = PRESENTATION_LAYER_ASSIGNMENT (  '', '', ( #506 ) ) ;
#166 = DIRECTION ( 'NONE',  ( 0.000000000000000000, 0.000000000000000000, 1.000000000000000000 ) ) ;
#167 = CARTESIAN_POINT ( 'NONE',  ( 90.00000000000000000, 0.000000000000000000, 35.00000000000000000 ) ) ;
#168 = AXIS2_PLACEMENT_3D ( 'NONE', #784, #128, #406 ) ;
#169 = CIRCLE ( 'NONE', #699, 31.50000000000000000 ) ;
#170 = FILL_AREA_STYLE ('',( #314 ) ) ;
#171 = VECTOR ( 'NONE', #242, 1000.000000000000000 ) ;
#172 = VERTEX_POINT ( 'NONE', #830 ) ;
#173 = CARTESIAN_POINT ( 'NONE',  ( 1.487306110593891617, 1.005000000000000782, 0.2999999999999998224 ) ) ;
#174 = ORIENTED_EDGE ( 'NONE', *, *, #859, .T. ) ;
#175 = ORIENTED_EDGE ( 'NONE', *, *, #834, .T. ) ;
#176 = DIRECTION ( 'NONE',  ( 0.000000000000000000, -1.000000000000000000, 6.195440985631455317E-17 ) ) ;
#177 = ORIENTED_EDGE ( 'NONE', *, *, #723, .T. ) ;
#178 = VERTEX_POINT ( 'NONE', #619 ) ;
#179 = FACE_OUTER_BOUND ( 'NONE', #630, .T. ) ;
#180 =( GEOMETRIC_REPRESENTATION_CONTEXT ( 3 ) GLOBAL_UNCERTAINTY_ASSIGNED_CONTEXT ( ( #259 ) ) GLOBAL_UNIT_ASSIGNED_CONTEXT ( ( #743, #890, #827 ) ) REPRESENTATION_CONTEXT ( 'NONE', 'WORKASPACE' ) );
#181 = AXIS2_PLACEMENT_3D ( 'NONE', #337, #66, #217 ) ;
#182 = ADVANCED_BREP_SHAPE_REPRESENTATION ( 'handle2', ( #271, #914, #744 ), #69 ) ;
#183 = AXIS2_PLACEMENT_3D ( 'NONE', #768, #622, #108 ) ;
#184 = ORIENTED_EDGE ( 'NONE', *, *, #11, .T. ) ;
#185 = EDGE_LOOP ( 'NONE', ( #376, #226, #175, #131 ) ) ;
#186 = PLANE ( 'NONE',  #183 ) ;
#187 = CARTESIAN_POINT ( 'NONE',  ( 0.000000000000000000, 0.005000000000000446795, 3.499999999999999112 ) ) ;
#188 = ADVANCED_FACE ( 'NONE', ( #117 ), #917, .F. ) ;
#189 = ORIENTED_EDGE ( 'NONE', *, *, #85, .T. ) ;
#190 = DIRECTION ( 'NONE',  ( 0.000000000000000000, -6.195440985631455317E-17, -1.000000000000000000 ) ) ;
#191 = CARTESIAN_POINT ( 'NONE',  ( 0.000000000000000000, -0.9849999999999993205, 3.499999999999999112 ) ) ;
#192 = CIRCLE ( 'NONE', #690, 0.9799999999999988720 ) ;
#193 = VERTEX_POINT ( 'NONE', #270 ) ;
#194 = DIRECTION ( 'NONE',  ( 0.000000000000000000, 0.000000000000000000, -1.000000000000000000 ) ) ;
#195 = FACE_OUTER_BOUND ( 'NONE', #309, .T. ) ;
#196 = VECTOR ( 'NONE', #580, 1000.000000000000000 ) ;
#197 = EDGE_LOOP ( 'NONE', ( #930, #9, #256, #817 ) ) ;
#198 = VECTOR ( 'NONE', #504, 1000.000000000000114 ) ;
#199 = ADVANCED_FACE ( 'NONE', ( #27 ), #559, .T. ) ;
#200 = DIRECTION ( 'NONE',  ( 0.000000000000000000, -0.000000000000000000, -1.000000000000000000 ) ) ;
#201 = CARTESIAN_POINT ( 'NONE',  ( 116.5306464301193188, -0.004999999999999796274, 8.469353569880784249 ) ) ;
#202 = ADVANCED_FACE ( 'NONE', ( #179 ), #909, .T. ) ;
#203 = DIRECTION ( 'NONE',  ( -0.7071067811865489050, 0.000000000000000000, 0.7071067811865462405 ) ) ;
#204 = LINE ( 'NONE', #651, #525 ) ;
#205 = CARTESIAN_POINT ( 'NONE',  ( 0.000000000000000000, -0.004999999999999796274, 3.499999999999999112 ) ) ;
#206 = VECTOR ( 'NONE', #236, 1000.000000000000114 ) ;
#207 = ORIENTED_EDGE ( 'NONE', *, *, #277, .F. ) ;
#208 = LINE ( 'NONE', #510, #554 ) ;
#209 = CARTESIAN_POINT ( 'NONE',  ( 112.9668282529391092, 0.9850000000000002087, 12.03317174706098136 ) ) ;
#210 = DIRECTION ( 'NONE',  ( 1.000000000000000000, 0.000000000000000000, 0.000000000000000000 ) ) ;
#211 = EDGE_CURVE ( 'NONE', #935, #606, #764, .T. ) ;
#212 = MECHANICAL_DESIGN_GEOMETRIC_PRESENTATION_REPRESENTATION (  '', ( #506 ), #180 ) ;
#213 = VECTOR ( 'NONE', #125, 1000.000000000000000 ) ;
#214 = FACE_OUTER_BOUND ( 'NONE', #394, .T. ) ;
#215 =( LENGTH_UNIT ( ) NAMED_UNIT ( * ) SI_UNIT ( .MILLI., .METRE. ) );
#216 =( GEOMETRIC_REPRESENTATION_CONTEXT ( 3 ) GLOBAL_UNCERTAINTY_ASSIGNED_CONTEXT ( ( #423 ) ) GLOBAL_UNIT_ASSIGNED_CONTEXT ( ( #215, #852, #54 ) ) REPRESENTATION_CONTEXT ( 'NONE', 'WORKASPACE' ) );
#217 = DIRECTION ( 'NONE',  ( 1.000000000000000000, 0.000000000000000000, -0.000000000000000000 ) ) ;
#218 = EDGE_CURVE ( 'NONE', #258, #631, #39, .T. ) ;
#219 = CARTESIAN_POINT ( 'NONE',  ( 128.9128387290710691, -0.9849999999999997646, 20.85154586883255234 ) ) ;
#220 = DIRECTION ( 'NONE',  ( 0.000000000000000000, 0.000000000000000000, -1.000000000000000000 ) ) ;
#221 = DIRECTION ( 'NONE',  ( 1.000000000000000000, 0.000000000000000000, 0.000000000000000000 ) ) ;
#222 = VERTEX_POINT ( 'NONE', #840 ) ;
#223 = CARTESIAN_POINT ( 'NONE',  ( 89.99999999999997158, 0.9850000000000002087, -3.500000000000000888 ) ) ;
#224 = DIRECTION ( 'NONE',  ( 0.7071067811865466846, -0.000000000000000000, 0.7071067811865484609 ) ) ;
#225 = ORIENTED_EDGE ( 'NONE', *, *, #435, .F. ) ;
#226 = ORIENTED_EDGE ( 'NONE', *, *, #321, .T. ) ;
#227 = CARTESIAN_POINT ( 'NONE',  ( 89.99999999999997158, -0.004999999999999796274, 3.499999999999999112 ) ) ;
#228 = ADVANCED_FACE ( 'NONE', ( #340 ), #186, .T. ) ;
#229 = VECTOR ( 'NONE', #718, 1000.000000000000114 ) ;
#230 = CARTESIAN_POINT ( 'NONE',  ( 129.6058033746338651, -0.9849999999999997646, 20.15858122326973856 ) ) ;
#231 = CARTESIAN_POINT ( 'NONE',  ( 89.99999999999997158, -0.9849999999999993205, 2.520000000000000018 ) ) ;
#232 = EDGE_CURVE ( 'NONE', #101, #178, #399, .T. ) ;
#233 = TOROIDAL_SURFACE ( 'NONE', #328, 37.52000000000000313, 0.9799999999999999822 ) ;
#234 = ORIENTED_EDGE ( 'NONE', *, *, #277, .T. ) ;
#235 = FACE_OUTER_BOUND ( 'NONE', #154, .T. ) ;
#236 = DIRECTION ( 'NONE',  ( 0.7071067811865483499, -6.195440985631454085E-17, -0.7071067811865465735 ) ) ;
#237 = CARTESIAN_POINT ( 'NONE',  ( 90.00000000000000000, 0.9850000000000002087, 35.00000000000000000 ) ) ;
#238 = EDGE_CURVE ( 'NONE', #760, #606, #756, .T. ) ;
#239 = DIRECTION ( 'NONE',  ( 0.000000000000000000, 0.000000000000000000, 1.000000000000000000 ) ) ;
#240 = ORIENTED_EDGE ( 'NONE', *, *, #317, .T. ) ;
#241 = VECTOR ( 'NONE', #156, 1000.000000000000000 ) ;
#242 = DIRECTION ( 'NONE',  ( 0.000000000000000000, -1.000000000000000000, -0.000000000000000000 ) ) ;
#243 = DIRECTION ( 'NONE',  ( -0.7071067811865484609, -0.000000000000000000, 0.7071067811865466846 ) ) ;
#244 = EDGE_CURVE ( 'NONE', #671, #260, #410, .T. ) ;
#245 = ORIENTED_EDGE ( 'NONE', *, *, #903, .T. ) ;
#246 = DIRECTION ( 'NONE',  ( -0.000000000000000000, -1.000000000000000000, 0.000000000000000000 ) ) ;
#247 = AXIS2_PLACEMENT_3D ( 'NONE', #369, #289, #516 ) ;
#248 = CIRCLE ( 'NONE', #793, 0.2499999999999999445 ) ;
#249 = AXIS2_PLACEMENT_3D ( 'NONE', #534, #672, #607 ) ;
#250 = ORIENTED_EDGE ( 'NONE', *, *, #408, .F. ) ;
#251 = EDGE_CURVE ( 'NONE', #42, #287, #773, .T. ) ;
#252 = LINE ( 'NONE', #526, #771 ) ;
#253 = VERTEX_POINT ( 'NONE', #346 ) ;
#254 = EDGE_LOOP ( 'NONE', ( #225, #398, #675, #245 ) ) ;
#255 = PRODUCT_DEFINITION_SHAPE ( 'NONE', 'NONE',  #664 ) ;
#256 = ORIENTED_EDGE ( 'NONE', *, *, #129, .T. ) ;
#257 = DIRECTION ( 'NONE',  ( 0.000000000000000000, 0.000000000000000000, -1.000000000000000000 ) ) ;
#258 = VERTEX_POINT ( 'NONE', #632 ) ;
#259 = UNCERTAINTY_MEASURE_WITH_UNIT (LENGTH_MEASURE( 1.000000000000000082E-05 ), #743, 'distance_accuracy_value', 'NONE');
#260 = VERTEX_POINT ( 'NONE', #275 ) ;
#261 = CARTESIAN_POINT ( 'NONE',  ( 0.000000000000000000, 0.005000000000000229955, -2.520000000000001350 ) ) ;
#262 = DIRECTION ( 'NONE',  ( 0.7071067811865465735, 0.000000000000000000, 0.7071067811865483499 ) ) ;
#263 = ADVANCED_FACE ( 'NONE', ( #102 ), #488, .T. ) ;
#264 = ADVANCED_FACE ( 'NONE', ( #420 ), #104, .T. ) ;
#265 = DIRECTION ( 'NONE',  ( -1.000000000000000000, -0.000000000000000000, -0.000000000000000000 ) ) ;
#266 = AXIS2_PLACEMENT_3D ( 'NONE', #865, #2, #437 ) ;
#267 = VECTOR ( 'NONE', #726, 1000.000000000000000 ) ;
#268 = EDGE_LOOP ( 'NONE', ( #147, #843, #338, #470 ) ) ;
#269 = CARTESIAN_POINT ( 'NONE',  ( 1.487306110593891617, 1.005000000000000782, -0.3000000000000001554 ) ) ;
#270 = CARTESIAN_POINT ( 'NONE',  ( -0.2499999999999444333, 1.505000000000000782, 0.2999999999999998224 ) ) ;
#271 = MANIFOLD_SOLID_BREP ( 'Fillet1', #70 ) ;
#272 = CARTESIAN_POINT ( 'NONE',  ( 90.00000000000000000, -0.004999999999999579434, 35.00000000000000000 ) ) ;
#273 = ORIENTED_EDGE ( 'NONE', *, *, #678, .F. ) ;
#274 = CARTESIAN_POINT ( 'NONE',  ( 129.6058033746338651, 0.005000000000000229955, 20.15858122326973856 ) ) ;
#275 = CARTESIAN_POINT ( 'NONE',  ( 0.000000000000000000, 0.9850000000000002087, -2.520000000000001350 ) ) ;
#276 = DIRECTION ( 'NONE',  ( -1.000000000000000000, 0.000000000000000000, -0.000000000000000000 ) ) ;
#277 = EDGE_CURVE ( 'NONE', #606, #671, #37, .T. ) ;
#278 = ORIENTED_EDGE ( 'NONE', *, *, #811, .F. ) ;
#279 = DIRECTION ( 'NONE',  ( 0.000000000000000000, -1.000000000000000000, 0.000000000000000000 ) ) ;
#280 = CARTESIAN_POINT ( 'NONE',  ( 89.99999999999997158, 0.9850000000000002087, 2.520000000000000018 ) ) ;
#281 = FACE_OUTER_BOUND ( 'NONE', #904, .T. ) ;
#282 = VECTOR ( 'NONE', #113, 1000.000000000000000 ) ;
#283 = AXIS2_PLACEMENT_3D ( 'NONE', #155, #382, #948 ) ;
#284 = DIRECTION ( 'NONE',  ( 0.000000000000000000, 0.000000000000000000, 1.000000000000000000 ) ) ;
#285 = CARTESIAN_POINT ( 'NONE',  ( 90.00000000000000000, 0.005000000000000229955, 35.00000000000000000 ) ) ;
#286 = FACE_OUTER_BOUND ( 'NONE', #468, .T. ) ;
#287 = VERTEX_POINT ( 'NONE', #373 ) ;
#288 = DIRECTION ( 'NONE',  ( 0.000000000000000000, 0.000000000000000000, -1.000000000000000000 ) ) ;
#289 = DIRECTION ( 'NONE',  ( -4.380838333381074689E-17, -1.000000000000000000, 4.380838333381063595E-17 ) ) ;
#290 = VECTOR ( 'NONE', #395, 1000.000000000000000 ) ;
#291 = EDGE_LOOP ( 'NONE', ( #567, #451, #389, #851 ) ) ;
#292 = DIRECTION ( 'NONE',  ( 0.000000000000000000, 0.000000000000000000, -1.000000000000000000 ) ) ;
#293 = DIRECTION ( 'NONE',  ( 0.7071067811865475727, 0.000000000000000000, -0.7071067811865475727 ) ) ;
#294 = DIRECTION ( 'NONE',  ( 0.000000000000000000, 0.000000000000000000, 1.000000000000000000 ) ) ;
#295 = EDGE_CURVE ( 'NONE', #831, #79, #169, .T. ) ;
#296 = MECHANICAL_DESIGN_GEOMETRIC_PRESENTATION_REPRESENTATION (  '', ( #601 ), #535 ) ;
#297 = CIRCLE ( 'NONE', #168, 0.2499999999999999445 ) ;
#298 = AXIS2_PLACEMENT_3D ( 'NONE', #947, #45, #288 ) ;
#299 = LINE ( 'NONE', #132, #612 ) ;
#300 = CARTESIAN_POINT ( 'NONE',  ( 0.000000000000000000, -0.9849999999999997646, -3.500000000000000888 ) ) ;
#301 = PRESENTATION_STYLE_ASSIGNMENT (( #938 ) ) ;
#302 = CARTESIAN_POINT ( 'NONE',  ( 127.1309296404809430, 0.000000000000000000, 22.63345495742265356 ) ) ;
#303 = DIRECTION ( 'NONE',  ( 0.000000000000000000, 0.000000000000000000, 1.000000000000000000 ) ) ;
#304 = CARTESIAN_POINT ( 'NONE',  ( 129.6058033746338651, 0.9850000000000002087, 20.15858122326973856 ) ) ;
#305 = ORIENTED_EDGE ( 'NONE', *, *, #543, .T. ) ;
#306 = DIRECTION ( 'NONE',  ( 0.000000000000000000, 0.000000000000000000, 1.000000000000000000 ) ) ;
#307 = LINE ( 'NONE', #95, #171 ) ;
#308 = DIRECTION ( 'NONE',  ( 0.000000000000000000, 0.000000000000000000, -1.000000000000000000 ) ) ;
#309 = EDGE_LOOP ( 'NONE', ( #597, #731, #878, #404 ) ) ;
#310 = DIRECTION ( 'NONE',  ( 1.000000000000000000, 0.000000000000000000, 0.000000000000000000 ) ) ;
#311 = VECTOR ( 'NONE', #795, 1000.000000000000000 ) ;
#312 = CARTESIAN_POINT ( 'NONE',  ( 5.551115123125782702E-14, 1.505000000000000782, -0.3000000000000001554 ) ) ;
#313 =( NAMED_UNIT ( * ) PLANE_ANGLE_UNIT ( ) SI_UNIT ( $, .RADIAN. ) );
#314 = FILL_AREA_STYLE_COLOUR ( '', #570 ) ;
#315 = ORIENTED_EDGE ( 'NONE', *, *, #466, .F. ) ;
#316 = CARTESIAN_POINT ( 'NONE',  ( 116.5306464301193188, 0.005000000000000229955, 8.469353569880784249 ) ) ;
#317 = EDGE_CURVE ( 'NONE', #856, #477, #204, .T. ) ;
#318 = ORIENTED_EDGE ( 'NONE', *, *, #706, .T. ) ;
#319 = DIRECTION ( 'NONE',  ( 0.7071067811865475727, 0.000000000000000000, -0.7071067811865475727 ) ) ;
#320 = SURFACE_STYLE_FILL_AREA ( #170 ) ;
#321 = EDGE_CURVE ( 'NONE', #164, #419, #708, .T. ) ;
#322 = ORIENTED_EDGE ( 'NONE', *, *, #850, .T. ) ;
#323 = ORIENTED_EDGE ( 'NONE', *, *, #691, .F. ) ;
#324 = COLOUR_RGB ( '',0.7921568627450980005, 0.8196078431372548767, 0.9333333333333333481 ) ;
#325 = CARTESIAN_POINT ( 'NONE',  ( 129.6058033746338651, -0.9849999999999997646, 20.15858122326973856 ) ) ;
#326 = AXIS2_PLACEMENT_3D ( 'NONE', #547, #176, #190 ) ;
#327 = PRODUCT_CONTEXT ( 'NONE', #812, 'mechanical' ) ;
#328 = AXIS2_PLACEMENT_3D ( 'NONE', #285, #145, #143 ) ;
#329 = EDGE_LOOP ( 'NONE', ( #533, #561, #899, #418, #866, #550, #174, #322 ) ) ;
#330 = ORIENTED_EDGE ( 'NONE', *, *, #532, .F. ) ;
#331 = DIRECTION ( 'NONE',  ( -1.000000000000000000, -0.000000000000000000, -0.000000000000000000 ) ) ;
#332 = ORIENTED_EDGE ( 'NONE', *, *, #527, .F. ) ;
#333 = EDGE_CURVE ( 'NONE', #193, #57, #946, .T. ) ;
#334 = ORIENTED_EDGE ( 'NONE', *, *, #685, .T. ) ;
#335 = VERTEX_POINT ( 'NONE', #280 ) ;
#336 = DIRECTION ( 'NONE',  ( 1.000000000000000000, -0.000000000000000000, 0.000000000000000000 ) ) ;
#337 = CARTESIAN_POINT ( 'NONE',  ( 5.551115123125782702E-14, 1.505000000000000782, -0.3000000000000001554 ) ) ;
#338 = ORIENTED_EDGE ( 'NONE', *, *, #429, .T. ) ;
#339 = ORIENTED_EDGE ( 'NONE', *, *, #435, .T. ) ;
#340 = FACE_OUTER_BOUND ( 'NONE', #50, .T. ) ;
#341 = DIRECTION ( 'NONE',  ( 0.000000000000000000, 0.000000000000000000, -1.000000000000000000 ) ) ;
#342 = AXIS2_PLACEMENT_3D ( 'NONE', #152, #874, #308 ) ;
#343 = AXIS2_PLACEMENT_3D ( 'NONE', #348, #558, #482 ) ;
#344 = ORIENTED_EDGE ( 'NONE', *, *, #232, .T. ) ;
#345 = EDGE_LOOP ( 'NONE', ( #789, #469 ) ) ;
#346 = CARTESIAN_POINT ( 'NONE',  ( 125.3490205518908454, -0.9849999999999993205, 24.41536404601275478 ) ) ;
#347 = DIRECTION ( 'NONE',  ( 1.000000000000000000, -0.000000000000000000, -0.000000000000000000 ) ) ;
#348 = CARTESIAN_POINT ( 'NONE',  ( 112.9668282529391092, 0.005000000000000229955, 12.03317174706098136 ) ) ;
#349 = DIRECTION ( 'NONE',  ( 0.000000000000000000, -0.000000000000000000, 1.000000000000000000 ) ) ;
#350 = CARTESIAN_POINT ( 'NONE',  ( 117.2236110756821290, -0.9849999999999997646, 7.776388924317967799 ) ) ;
#351 = EDGE_CURVE ( 'NONE', #631, #253, #682, .T. ) ;
#352 = DIRECTION ( 'NONE',  ( 0.6040853395531656789, 0.7969196336751508403, -0.000000000000000000 ) ) ;
#353 = DIRECTION ( 'NONE',  ( 1.000000000000000000, 0.000000000000000000, 0.000000000000000000 ) ) ;
#354 = CARTESIAN_POINT ( 'NONE',  ( 117.2236110756821290, 0.9850000000000002087, 7.776388924317967799 ) ) ;
#355 = VECTOR ( 'NONE', #889, 1000.000000000000000 ) ;
#356 = AXIS2_PLACEMENT_3D ( 'NONE', #867, #352, #863 ) ;
#357 = ADVANCED_FACE ( 'NONE', ( #511 ), #233, .T. ) ;
#358 = VECTOR ( 'NONE', #377, 1000.000000000000000 ) ;
#359 = FACE_OUTER_BOUND ( 'NONE', #463, .T. ) ;
#360 = DIRECTION ( 'NONE',  ( 0.7071067811865475727, 1.251668095251734027E-15, 0.7071067811865475727 ) ) ;
#361 = CARTESIAN_POINT ( 'NONE',  ( 5.551115123125782702E-14, 1.505000000000000782, 0.2999999999999998224 ) ) ;
#362 = ORIENTED_EDGE ( 'NONE', *, *, #481, .F. ) ;
#363 = DIRECTION ( 'NONE',  ( -0.7071067811865465735, -0.000000000000000000, -0.7071067811865483499 ) ) ;
#364 = CARTESIAN_POINT ( 'NONE',  ( 117.2236110756821290, -0.004999999999999579434, 7.776388924317970464 ) ) ;
#365 = EDGE_CURVE ( 'NONE', #681, #119, #569, .T. ) ;
#366 = DIRECTION ( 'NONE',  ( 0.000000000000000000, 0.000000000000000000, 1.000000000000000000 ) ) ;
#367 = LINE ( 'NONE', #942, #149 ) ;
#368 = CARTESIAN_POINT ( 'NONE',  ( 116.5306464301193188, -0.9849999999999997646, 8.469353569880784249 ) ) ;
#369 = CARTESIAN_POINT ( 'NONE',  ( 117.2236110756821290, -0.9849999999999997646, 7.776388924317967799 ) ) ;
#370 = PRESENTATION_LAYER_ASSIGNMENT (  '', '', ( #601 ) ) ;
#371 = AXIS2_PLACEMENT_3D ( 'NONE', #272, #33, #709 ) ;
#372 = CARTESIAN_POINT ( 'NONE',  ( 0.000000000000000000, -0.9849999999999993205, 2.520000000000000018 ) ) ;
#373 = CARTESIAN_POINT ( 'NONE',  ( 0.3020426697766380730, 1.903459816837576479, -0.3000000000000001554 ) ) ;
#374 = AXIS2_PLACEMENT_3D ( 'NONE', #531, #450, #881 ) ;
#375 = CARTESIAN_POINT ( 'NONE',  ( 5.551115123125782702E-14, 1.505000000000000782, -0.3000000000000001554 ) ) ;
#376 = ORIENTED_EDGE ( 'NONE', *, *, #653, .F. ) ;
#377 = DIRECTION ( 'NONE',  ( 0.000000000000000000, 0.000000000000000000, 1.000000000000000000 ) ) ;
#378 = DIRECTION ( 'NONE',  ( 0.000000000000000000, 0.000000000000000000, -1.000000000000000000 ) ) ;
#379 = LINE ( 'NONE', #649, #759 ) ;
#380 = ORIENTED_EDGE ( 'NONE', *, *, #816, .F. ) ;
#381 = ORIENTED_EDGE ( 'NONE', *, *, #628, .F. ) ;
#382 = DIRECTION ( 'NONE',  ( -0.000000000000000000, -1.000000000000000000, 0.000000000000000000 ) ) ;
#383 = PLANE ( 'NONE',  #885 ) ;
#384 = CARTESIAN_POINT ( 'NONE',  ( 112.2738636073762848, -0.9849999999999993205, 12.72613639262379515 ) ) ;
#385 = VERTEX_POINT ( 'NONE', #943 ) ;
#386 = CIRCLE ( 'NONE', #342, 31.50000000000000711 ) ;
#387 = FACE_OUTER_BOUND ( 'NONE', #492, .T. ) ;
#388 = CARTESIAN_POINT ( 'NONE',  ( 124.6560559063280351, -0.9849999999999993205, 25.10832869157556857 ) ) ;
#389 = ORIENTED_EDGE ( 'NONE', *, *, #850, .F. ) ;
#390 = EDGE_LOOP ( 'NONE', ( #737, #542, #618, #487 ) ) ;
#391 = DIRECTION ( 'NONE',  ( -0.7071067811865465735, -0.000000000000000000, -0.7071067811865483499 ) ) ;
#392 = DIRECTION ( 'NONE',  ( 0.7071067811865465735, 0.000000000000000000, 0.7071067811865483499 ) ) ;
#393 = EDGE_CURVE ( 'NONE', #681, #419, #539, .T. ) ;
#394 = EDGE_LOOP ( 'NONE', ( #107, #894, #480, #846 ) ) ;
#395 = DIRECTION ( 'NONE',  ( -1.000000000000000000, -0.000000000000000000, 0.000000000000000000 ) ) ;
#396 = DIRECTION ( 'NONE',  ( 1.000000000000000000, 0.000000000000000000, 0.000000000000000000 ) ) ;
#397 = ORIENTED_EDGE ( 'NONE', *, *, #85, .F. ) ;
#398 = ORIENTED_EDGE ( 'NONE', *, *, #593, .F. ) ;
#399 = LINE ( 'NONE', #688, #416 ) ;
#400 = VECTOR ( 'NONE', #698, 1000.000000000000114 ) ;
#401 = VECTOR ( 'NONE', #887, 1000.000000000000000 ) ;
#402 = ORIENTED_EDGE ( 'NONE', *, *, #582, .T. ) ;
#403 = VERTEX_POINT ( 'NONE', #786 ) ;
#404 = ORIENTED_EDGE ( 'NONE', *, *, #365, .F. ) ;
#405 = DIRECTION ( 'NONE',  ( 0.000000000000000000, 0.000000000000000000, -1.000000000000000000 ) ) ;
#406 = DIRECTION ( 'NONE',  ( 1.000000000000000000, 0.000000000000000000, 0.000000000000000000 ) ) ;
#407 = ORIENTED_EDGE ( 'NONE', *, *, #58, .T. ) ;
#408 = EDGE_CURVE ( 'NONE', #25, #178, #72, .T. ) ;
#409 = DIRECTION ( 'NONE',  ( 0.000000000000000000, 0.000000000000000000, -1.000000000000000000 ) ) ;
#410 = LINE ( 'NONE', #693, #508 ) ;
#411 = DIRECTION ( 'NONE',  ( 0.000000000000000000, 0.000000000000000000, -1.000000000000000000 ) ) ;
#412 = EDGE_LOOP ( 'NONE', ( #3, #123, #464, #332 ) ) ;
#413 = CARTESIAN_POINT ( 'NONE',  ( 0.3020426697766381285, 1.903459816837576479, -0.3000000000000001554 ) ) ;
#414 = CARTESIAN_POINT ( 'NONE',  ( 0.000000000000000000, -0.004999999999999796274, 2.519999999999999574 ) ) ;
#415 = AXIS2_PLACEMENT_3D ( 'NONE', #769, #341, #276 ) ;
#416 = VECTOR ( 'NONE', #923, 1000.000000000000114 ) ;
#417 = CIRCLE ( 'NONE', #249, 38.50000000000000711 ) ;
#418 = ORIENTED_EDGE ( 'NONE', *, *, #794, .T. ) ;
#419 = VERTEX_POINT ( 'NONE', #364 ) ;
#420 = FACE_OUTER_BOUND ( 'NONE', #583, .T. ) ;
#421 = EDGE_CURVE ( 'NONE', #828, #93, #581, .T. ) ;
#422 = FACE_OUTER_BOUND ( 'NONE', #185, .T. ) ;
#423 = UNCERTAINTY_MEASURE_WITH_UNIT (LENGTH_MEASURE( 1.000000000000000082E-05 ), #215, 'distance_accuracy_value', 'NONE');
#424 = CARTESIAN_POINT ( 'NONE',  ( 90.00000000000000000, -0.004999999999999579434, 35.00000000000000000 ) ) ;
#425 = DIRECTION ( 'NONE',  ( 0.7071067811865475727, 0.000000000000000000, -0.7071067811865475727 ) ) ;
#426 = EDGE_CURVE ( 'NONE', #42, #536, #791, .T. ) ;
#427 = CARTESIAN_POINT ( 'NONE',  ( 89.99999999999997158, 0.005000000000000446795, 3.499999999999999112 ) ) ;
#428 = DIRECTION ( 'NONE',  ( 1.000000000000000000, 0.000000000000000000, 0.000000000000000000 ) ) ;
#429 = EDGE_CURVE ( 'NONE', #159, #935, #432, .T. ) ;
#430 = VERTEX_POINT ( 'NONE', #60 ) ;
#431 = CYLINDRICAL_SURFACE ( 'NONE', #298, 31.50000000000000711 ) ;
#432 = LINE ( 'NONE', #300, #763 ) ;
#433 = CARTESIAN_POINT ( 'NONE',  ( 112.2738636073762848, 0.005000000000000229955, 12.72613639262379337 ) ) ;
#434 = ORIENTED_EDGE ( 'NONE', *, *, #637, .T. ) ;
#435 = EDGE_CURVE ( 'NONE', #38, #430, #730, .T. ) ;
#436 = CARTESIAN_POINT ( 'NONE',  ( 0.2500000000000554556, 1.505000000000000782, 0.2999999999999998224 ) ) ;
#437 = DIRECTION ( 'NONE',  ( 0.7071067811865475727, 0.000000000000000000, -0.7071067811865475727 ) ) ;
#438 = DIRECTION ( 'NONE',  ( 1.000000000000000000, 0.000000000000000000, 0.000000000000000000 ) ) ;
#439 = SURFACE_SIDE_STYLE ('',( #858 ) ) ;
#440 = EDGE_CURVE ( 'NONE', #671, #335, #876, .T. ) ;
#441 = DIRECTION ( 'NONE',  ( -1.000000000000000000, -0.000000000000000000, -0.000000000000000000 ) ) ;
#442 = AXIS2_PLACEMENT_3D ( 'NONE', #384, #243, #392 ) ;
#443 = ORIENTED_EDGE ( 'NONE', *, *, #94, .T. ) ;
#444 = FACE_OUTER_BOUND ( 'NONE', #837, .T. ) ;
#445 = AXIS2_PLACEMENT_3D ( 'NONE', #873, #738, #81 ) ;
#446 = DIRECTION ( 'NONE',  ( 0.7071067811865475727, 1.251668095251734027E-15, 0.7071067811865475727 ) ) ;
#447 = CARTESIAN_POINT ( 'NONE',  ( 89.99999999999997158, -0.004999999999999796274, -2.520000000000001350 ) ) ;
#448 = ORIENTED_EDGE ( 'NONE', *, *, #244, .F. ) ;
#449 = LINE ( 'NONE', #598, #573 ) ;
#450 = DIRECTION ( 'NONE',  ( 1.000000000000000000, 0.000000000000000000, -0.000000000000000000 ) ) ;
#451 = ORIENTED_EDGE ( 'NONE', *, *, #577, .F. ) ;
#452 = DIRECTION ( 'NONE',  ( 0.000000000000000000, 0.000000000000000000, 1.000000000000000000 ) ) ;
#453 = EDGE_LOOP ( 'NONE', ( #752, #443, #318, #189 ) ) ;
#454 = ADVANCED_FACE ( 'NONE', ( #4 ), #809, .T. ) ;
#455 = AXIS2_PLACEMENT_3D ( 'NONE', #447, #221, #600 ) ;
#456 = VECTOR ( 'NONE', #336, 1000.000000000000000 ) ;
#457 = CARTESIAN_POINT ( 'NONE',  ( 89.99999999999997158, 0.005000000000000229955, -3.500000000000000888 ) ) ;
#458 = DIRECTION ( 'NONE',  ( -0.000000000000000000, -1.000000000000000000, 0.000000000000000000 ) ) ;
#459 = SURFACE_STYLE_USAGE ( .BOTH. , #835 ) ;
#460 = EDGE_LOOP ( 'NONE', ( #86, #546, #801, #665 ) ) ;
#461 = CARTESIAN_POINT ( 'NONE',  ( 124.6560559063280351, -0.004999999999999362593, 25.10832869157556857 ) ) ;
#462 = APPLICATION_PROTOCOL_DEFINITION ( 'draft international standard', 'automotive_design', 1998, #862 ) ;
#463 = EDGE_LOOP ( 'NONE', ( #646, #12, #926, #808 ) ) ;
#464 = ORIENTED_EDGE ( 'NONE', *, *, #393, .F. ) ;
#465 = CARTESIAN_POINT ( 'NONE',  ( 0.000000000000000000, -0.005000000000000013115, -3.500000000000000888 ) ) ;
#466 = EDGE_CURVE ( 'NONE', #222, #193, #449, .T. ) ;
#467 = PRESENTATION_STYLE_ASSIGNMENT (( #459 ) ) ;
#468 = EDGE_LOOP ( 'NONE', ( #529, #323, #643, #278 ) ) ;
#469 = ORIENTED_EDGE ( 'NONE', *, *, #333, .F. ) ;
#470 = ORIENTED_EDGE ( 'NONE', *, *, #211, .T. ) ;
#471 = CIRCLE ( 'NONE', #49, 0.9799999999999999822 ) ;
#472 = CARTESIAN_POINT ( 'NONE',  ( 89.99999999999997158, -0.004999999999999796274, 2.519999999999999130 ) ) ;
#473 = AXIS2_PLACEMENT_3D ( 'NONE', #472, #627, #257 ) ;
#474 = CIRCLE ( 'NONE', #153, 37.52000000000000313 ) ;
#475 = EDGE_CURVE ( 'NONE', #606, #25, #701, .T. ) ;
#476 = ORIENTED_EDGE ( 'NONE', *, *, #408, .T. ) ;
#477 = VERTEX_POINT ( 'NONE', #518 ) ;
#478 = DIRECTION ( 'NONE',  ( 1.000000000000000000, 0.000000000000000000, 0.000000000000000000 ) ) ;
#479 = LINE ( 'NONE', #191, #213 ) ;
#480 = ORIENTED_EDGE ( 'NONE', *, *, #333, .T. ) ;
#481 = EDGE_CURVE ( 'NONE', #260, #385, #802, .T. ) ;
#482 = DIRECTION ( 'NONE',  ( 0.7071067811865475727, 0.000000000000000000, -0.7071067811865475727 ) ) ;
#483 = CARTESIAN_POINT ( 'NONE',  ( 0.000000000000000000, 0.005000000000000229955, -3.500000000000000888 ) ) ;
#484 = CIRCLE ( 'NONE', #64, 32.48000000000001108 ) ;
#485 = DIRECTION ( 'NONE',  ( 0.000000000000000000, 1.000000000000000000, -0.000000000000000000 ) ) ;
#486 = ADVANCED_FACE ( 'NONE', ( #444 ), #732, .T. ) ;
#487 = ORIENTED_EDGE ( 'NONE', *, *, #577, .T. ) ;
#488 = CYLINDRICAL_SURFACE ( 'NONE', #522, 0.9799999999999999822 ) ;
#489 = CARTESIAN_POINT ( 'NONE',  ( 0.2500000000000554556, 1.505000000000000782, -0.3000000000000001554 ) ) ;
#490 = VECTOR ( 'NONE', #845, 1000.000000000000000 ) ;
#491 = AXIS2_PLACEMENT_3D ( 'NONE', #868, #796, #657 ) ;
#492 = EDGE_LOOP ( 'NONE', ( #476, #748, #902, #381 ) ) ;
#493 = PLANE ( 'NONE',  #356 ) ;
#494 = EDGE_CURVE ( 'NONE', #673, #496, #75, .T. ) ;
#495 = CARTESIAN_POINT ( 'NONE',  ( 0.000000000000000000, -0.9849999999999997646, -3.500000000000000888 ) ) ;
#496 = VERTEX_POINT ( 'NONE', #227 ) ;
#497 = CARTESIAN_POINT ( 'NONE',  ( 0.2500000000000554556, 1.505000000000000782, -0.3000000000000001554 ) ) ;
#498 = DIRECTION ( 'NONE',  ( 0.7071067811865475727, 0.000000000000000000, -0.7071067811865475727 ) ) ;
#499 = AXIS2_PLACEMENT_3D ( 'NONE', #316, #749, #319 ) ;
#500 = DIRECTION ( 'NONE',  ( 0.7071067811865475727, 0.000000000000000000, -0.7071067811865475727 ) ) ;
#501 = ADVANCED_FACE ( 'NONE', ( #160, #235 ), #950, .T. ) ;
#502 = ORIENTED_EDGE ( 'NONE', *, *, #163, .F. ) ;
#503 = FACE_OUTER_BOUND ( 'NONE', #523, .T. ) ;
#504 = DIRECTION ( 'NONE',  ( 0.7071067811865465735, 0.000000000000000000, 0.7071067811865483499 ) ) ;
#505 = FILL_AREA_STYLE_COLOUR ( '', #324 ) ;
#506 = STYLED_ITEM ( 'NONE', ( #467 ), #182 ) ;
#507 = AXIS2_PLACEMENT_3D ( 'NONE', #414, #265, #633 ) ;
#508 = VECTOR ( 'NONE', #32, 1000.000000000000000 ) ;
#509 = ORIENTED_EDGE ( 'NONE', *, *, #48, .T. ) ;
#510 = CARTESIAN_POINT ( 'NONE',  ( 0.000000000000000000, -0.9849999999999993205, 2.520000000000000018 ) ) ;
#511 = FACE_OUTER_BOUND ( 'NONE', #100, .T. ) ;
#512 = DIRECTION ( 'NONE',  ( 0.7071067811865475727, 0.000000000000000000, -0.7071067811865475727 ) ) ;
#513 = ADVANCED_FACE ( 'NONE', ( #83 ), #383, .T. ) ;
#514 = CARTESIAN_POINT ( 'NONE',  ( 117.2236110756821290, 0.9850000000000002087, 7.776388924317970464 ) ) ;
#515 = DIRECTION ( 'NONE',  ( 0.000000000000000000, 1.000000000000000000, -0.000000000000000000 ) ) ;
#516 = DIRECTION ( 'NONE',  ( 1.000000000000000000, -4.380838333381074689E-17, 0.000000000000000000 ) ) ;
#517 = ORIENTED_EDGE ( 'NONE', *, *, #211, .F. ) ;
#518 = CARTESIAN_POINT ( 'NONE',  ( 89.99999999999997158, -0.9849999999999997646, -2.520000000000001350 ) ) ;
#519 = ADVANCED_FACE ( 'NONE', ( #605 ), #888, .T. ) ;
#520 = DIRECTION ( 'NONE',  ( 0.000000000000000000, 0.000000000000000000, -1.000000000000000000 ) ) ;
#521 = AXIS2_PLACEMENT_3D ( 'NONE', #945, #146, #797 ) ;
#522 = AXIS2_PLACEMENT_3D ( 'NONE', #683, #565, #194 ) ;
#523 = EDGE_LOOP ( 'NONE', ( #334, #762, #34, #434 ) ) ;
#524 = DIRECTION ( 'NONE',  ( 0.000000000000000000, 0.000000000000000000, -1.000000000000000000 ) ) ;
#525 = VECTOR ( 'NONE', #68, 1000.000000000000000 ) ;
#526 = CARTESIAN_POINT ( 'NONE',  ( 0.000000000000000000, -0.005000000000000013115, -3.500000000000000888 ) ) ;
#527 = EDGE_CURVE ( 'NONE', #477, #681, #474, .T. ) ;
#528 =( NAMED_UNIT ( * ) SI_UNIT ( $, .STERADIAN. ) SOLID_ANGLE_UNIT ( ) );
#529 = ORIENTED_EDGE ( 'NONE', *, *, #163, .T. ) ;
#530 = CARTESIAN_POINT ( 'NONE',  ( 0.000000000000000000, 0.005000000000000229955, -2.520000000000001350 ) ) ;
#531 = CARTESIAN_POINT ( 'NONE',  ( 0.000000000000000000, -0.004999999999999796274, 2.519999999999999574 ) ) ;
#532 = EDGE_CURVE ( 'NONE', #831, #258, #307, .T. ) ;
#533 = ORIENTED_EDGE ( 'NONE', *, *, #940, .T. ) ;
#534 = CARTESIAN_POINT ( 'NONE',  ( 90.00000000000000000, -0.004999999999999579434, 35.00000000000000000 ) ) ;
#535 =( GEOMETRIC_REPRESENTATION_CONTEXT ( 3 ) GLOBAL_UNCERTAINTY_ASSIGNED_CONTEXT ( ( #912 ) ) GLOBAL_UNIT_ASSIGNED_CONTEXT ( ( #586, #877, #84 ) ) REPRESENTATION_CONTEXT ( 'NONE', 'WORKASPACE' ) );
#536 = VERTEX_POINT ( 'NONE', #173 ) ;
#537 = CIRCLE ( 'NONE', #266, 0.9799999999999988720 ) ;
#538 = COLOUR_RGB ( '',0.2509803921568627416, 0.2509803921568627416, 0.2509803921568627416 ) ;
#539 = CIRCLE ( 'NONE', #105, 0.9799999999999988720 ) ;
#540 = LINE ( 'NONE', #98, #82 ) ;
#541 = SHAPE_DEFINITION_REPRESENTATION ( #255, #182 ) ;
#542 = ORIENTED_EDGE ( 'NONE', *, *, #218, .T. ) ;
#543 = EDGE_CURVE ( 'NONE', #419, #760, #417, .T. ) ;
#544 = DIRECTION ( 'NONE',  ( 0.000000000000000000, 0.000000000000000000, 1.000000000000000000 ) ) ;
#545 = ORIENTED_EDGE ( 'NONE', *, *, #251, .F. ) ;
#546 = ORIENTED_EDGE ( 'NONE', *, *, #40, .F. ) ;
#547 = CARTESIAN_POINT ( 'NONE',  ( 0.000000000000000000, -0.9849999999999997646, -3.500000000000000888 ) ) ;
#548 = EDGE_CURVE ( 'NONE', #253, #119, #674, .T. ) ;
#549 = ORIENTED_EDGE ( 'NONE', *, *, #555, .F. ) ;
#550 = ORIENTED_EDGE ( 'NONE', *, *, #805, .T. ) ;
#551 = ORIENTED_EDGE ( 'NONE', *, *, #685, .F. ) ;
#552 = AXIS2_PLACEMENT_3D ( 'NONE', #629, #910, #500 ) ;
#553 = CARTESIAN_POINT ( 'NONE',  ( 89.99999999999997158, -0.9849999999999997646, -3.500000000000000888 ) ) ;
#554 = VECTOR ( 'NONE', #53, 1000.000000000000000 ) ;
#555 = EDGE_CURVE ( 'NONE', #760, #159, #252, .T. ) ;
#556 = CARTESIAN_POINT ( 'NONE',  ( 89.99999999999997158, -0.005000000000000013115, -3.500000000000000888 ) ) ;
#557 = UNCERTAINTY_MEASURE_WITH_UNIT (LENGTH_MEASURE( 1.000000000000000082E-05 ), #6, 'distance_accuracy_value', 'NONE');
#558 = DIRECTION ( 'NONE',  ( 0.7071067811865466846, 0.000000000000000000, 0.7071067811865484609 ) ) ;
#559 = PLANE ( 'NONE',  #326 ) ;
#560 = CARTESIAN_POINT ( 'NONE',  ( 5.551115123125782702E-14, 1.505000000000000782, -0.3000000000000001554 ) ) ;
#561 = ORIENTED_EDGE ( 'NONE', *, *, #351, .T. ) ;
#562 = EDGE_CURVE ( 'NONE', #287, #15, #115, .T. ) ;
#563 = ORIENTED_EDGE ( 'NONE', *, *, #129, .F. ) ;
#564 = CARTESIAN_POINT ( 'NONE',  ( 117.2236110756821290, 0.005000000000000229955, 7.776388924317970464 ) ) ;
#565 = DIRECTION ( 'NONE',  ( 1.000000000000000000, 0.000000000000000000, 0.000000000000000000 ) ) ;
#566 = DIRECTION ( 'NONE',  ( 0.000000000000000000, 0.000000000000000000, 1.000000000000000000 ) ) ;
#567 = ORIENTED_EDGE ( 'NONE', *, *, #816, .T. ) ;
#568 = ORIENTED_EDGE ( 'NONE', *, *, #494, .F. ) ;
#569 = LINE ( 'NONE', #368, #898 ) ;
#570 = COLOUR_RGB ( '',0.7921568627450980005, 0.8196078431372548767, 0.9333333333333333481 ) ;
#571 = LINE ( 'NONE', #114, #792 ) ;
#572 = CIRCLE ( 'NONE', #853, 0.9799999999999999822 ) ;
#573 = VECTOR ( 'NONE', #303, 1000.000000000000000 ) ;
#574 = ORIENTED_EDGE ( 'NONE', *, *, #716, .T. ) ;
#575 = CARTESIAN_POINT ( 'NONE',  ( 1.487306110593891617, 1.005000000000000782, -0.3000000000000001554 ) ) ;
#576 = CARTESIAN_POINT ( 'NONE',  ( 90.00000000000000000, 0.005000000000000229955, 35.00000000000000000 ) ) ;
#577 = EDGE_CURVE ( 'NONE', #403, #831, #16, .T. ) ;
#578 = CARTESIAN_POINT ( 'NONE',  ( 89.99999999999997158, 0.005000000000000229955, 2.520000000000000018 ) ) ;
#579 = EDGE_LOOP ( 'NONE', ( #402, #621, #330, #620 ) ) ;
#580 = DIRECTION ( 'NONE',  ( 1.000000000000000000, 0.000000000000000000, 0.000000000000000000 ) ) ;
#581 = LINE ( 'NONE', #209, #198 ) ;
#582 = EDGE_CURVE ( 'NONE', #79, #496, #892, .T. ) ;
#583 = EDGE_LOOP ( 'NONE', ( #574, #624, #380, #22 ) ) ;
#584 = CYLINDRICAL_SURFACE ( 'NONE', #838, 0.2499999999999999445 ) ;
#585 = PRESENTATION_STYLE_ASSIGNMENT (( #127 ) ) ;
#586 =( LENGTH_UNIT ( ) NAMED_UNIT ( * ) SI_UNIT ( .MILLI., .METRE. ) );
#587 = CIRCLE ( 'NONE', #713, 0.9799999999999988720 ) ;
#588 = AXIS2_PLACEMENT_3D ( 'NONE', #43, #353, #220 ) ;
#589 = CIRCLE ( 'NONE', #473, 0.9799999999999999822 ) ;
#590 = LINE ( 'NONE', #514, #715 ) ;
#591 = DIRECTION ( 'NONE',  ( 0.7071067811865466846, 0.000000000000000000, 0.7071067811865484609 ) ) ;
#592 = CARTESIAN_POINT ( 'NONE',  ( 128.9128387290710691, -0.004999999999999735559, 20.85154586883255234 ) ) ;
#593 = EDGE_CURVE ( 'NONE', #287, #38, #161, .T. ) ;
#594 = LINE ( 'NONE', #785, #196 ) ;
#595 = DIRECTION ( 'NONE',  ( 1.000000000000000000, -0.000000000000000000, 0.000000000000000000 ) ) ;
#596 = EDGE_CURVE ( 'NONE', #335, #828, #484, .T. ) ;
#597 = ORIENTED_EDGE ( 'NONE', *, *, #393, .T. ) ;
#598 = CARTESIAN_POINT ( 'NONE',  ( -0.2499999999999444333, 1.505000000000000782, -0.3000000000000001554 ) ) ;
#599 = DIRECTION ( 'NONE',  ( -1.000000000000000000, -0.000000000000000000, -0.000000000000000000 ) ) ;
#600 = DIRECTION ( 'NONE',  ( 0.000000000000000000, 0.000000000000000000, -1.000000000000000000 ) ) ;
#601 = STYLED_ITEM ( 'NONE', ( #301 ), #914 ) ;
#602 = AXIS2_PLACEMENT_3D ( 'NONE', #124, #833, #349 ) ;
#603 = ORIENTED_EDGE ( 'NONE', *, *, #48, .F. ) ;
#604 = CARTESIAN_POINT ( 'NONE',  ( 0.000000000000000000, -0.004999999999999796274, 3.499999999999999112 ) ) ;
#605 = FACE_OUTER_BOUND ( 'NONE', #111, .T. ) ;
#606 = VERTEX_POINT ( 'NONE', #457 ) ;
#607 = DIRECTION ( 'NONE',  ( 7.209240419643872983E-15, 0.000000000000000000, -1.000000000000000000 ) ) ;
#608 = ADVANCED_FACE ( 'NONE', ( #387 ), #10, .T. ) ;
#609 = ORIENTED_EDGE ( 'NONE', *, *, #426, .T. ) ;
#610 = CARTESIAN_POINT ( 'NONE',  ( 112.9668282529391092, -0.004999999999999579434, 12.03317174706097781 ) ) ;
#611 = ORIENTED_EDGE ( 'NONE', *, *, #596, .T. ) ;
#612 = VECTOR ( 'NONE', #363, 1000.000000000000114 ) ;
#613 = AXIS2_PLACEMENT_3D ( 'NONE', #133, #360, #864 ) ;
#614 = DIRECTION ( 'NONE',  ( 0.000000000000000000, 1.000000000000000000, 0.000000000000000000 ) ) ;
#615 = ORIENTED_EDGE ( 'NONE', *, *, #475, .T. ) ;
#616 = ORIENTED_EDGE ( 'NONE', *, *, #151, .F. ) ;
#617 = EDGE_CURVE ( 'NONE', #258, #813, #192, .T. ) ;
#618 = ORIENTED_EDGE ( 'NONE', *, *, #940, .F. ) ;
#619 = CARTESIAN_POINT ( 'NONE',  ( 116.5306464301193188, 0.9850000000000002087, 8.469353569880784249 ) ) ;
#620 = ORIENTED_EDGE ( 'NONE', *, *, #295, .T. ) ;
#621 = ORIENTED_EDGE ( 'NONE', *, *, #811, .T. ) ;
#622 = DIRECTION ( 'NONE',  ( 0.000000000000000000, -1.000000000000000000, 0.000000000000000000 ) ) ;
#623 = DIRECTION ( 'NONE',  ( 1.000000000000000000, 0.000000000000000000, 0.000000000000000000 ) ) ;
#624 = ORIENTED_EDGE ( 'NONE', *, *, #295, .F. ) ;
#625 = ORIENTED_EDGE ( 'NONE', *, *, #747, .T. ) ;
#626 = AXIS2_PLACEMENT_3D ( 'NONE', #560, #566, #849 ) ;
#627 = DIRECTION ( 'NONE',  ( 1.000000000000000000, 0.000000000000000000, -0.000000000000000000 ) ) ;
#628 = EDGE_CURVE ( 'NONE', #25, #24, #540, .T. ) ;
#629 = CARTESIAN_POINT ( 'NONE',  ( 116.5306464301193188, -0.004999999999999735559, 8.469353569880784249 ) ) ;
#630 = EDGE_LOOP ( 'NONE', ( #638, #19, #861, #908 ) ) ;
#631 = VERTEX_POINT ( 'NONE', #461 ) ;
#632 = CARTESIAN_POINT ( 'NONE',  ( 112.2738636073762848, -0.004999999999999579434, 12.72613639262379337 ) ) ;
#633 = DIRECTION ( 'NONE',  ( 0.000000000000000000, 0.000000000000000000, -1.000000000000000000 ) ) ;
#634 = EDGE_LOOP ( 'NONE', ( #545, #891, #31 ) ) ;
#635 = CARTESIAN_POINT ( 'NONE',  ( 90.00000000000000000, 0.005000000000000229955, 35.00000000000000000 ) ) ;
#636 = DIRECTION ( 'NONE',  ( 0.7071067811865484609, 0.000000000000000000, -0.7071067811865466846 ) ) ;
#637 = EDGE_CURVE ( 'NONE', #79, #679, #753, .T. ) ;
#638 = ORIENTED_EDGE ( 'NONE', *, *, #481, .T. ) ;
#639 = DIRECTION ( 'NONE',  ( 1.000000000000000000, 0.000000000000000000, 0.000000000000000000 ) ) ;
#640 = FILL_AREA_STYLE ('',( #23 ) ) ;
#641 = FACE_BOUND ( 'NONE', #695, .T. ) ;
#642 = AXIS2_PLACEMENT_3D ( 'NONE', #872, #284, #650 ) ;
#643 = ORIENTED_EDGE ( 'NONE', *, *, #617, .F. ) ;
#644 = DIRECTION ( 'NONE',  ( -0.000000000000000000, -1.000000000000000000, 0.000000000000000000 ) ) ;
#645 = SURFACE_SIDE_STYLE ('',( #56 ) ) ;
#646 = ORIENTED_EDGE ( 'NONE', *, *, #103, .F. ) ;
#647 = DIRECTION ( 'NONE',  ( 0.7071067811865466846, 0.000000000000000000, 0.7071067811865484609 ) ) ;
#648 = AXIS2_PLACEMENT_3D ( 'NONE', #312, #810, #5 ) ;
#649 = CARTESIAN_POINT ( 'NONE',  ( 5.551115123125782702E-14, 1.005000000000000782, -0.3000000000000001554 ) ) ;
#650 = DIRECTION ( 'NONE',  ( 1.000000000000000000, 0.000000000000000000, -0.000000000000000000 ) ) ;
#651 = CARTESIAN_POINT ( 'NONE',  ( 89.99999999999997158, -0.9849999999999997646, -3.500000000000000888 ) ) ;
#652 = CYLINDRICAL_SURFACE ( 'NONE', #806, 0.5000000000000000000 ) ;
#653 = EDGE_CURVE ( 'NONE', #164, #24, #677, .T. ) ;
#654 = CLOSED_SHELL ( 'NONE', ( #87, #99, #18, #901, #788, #501, #757 ) ) ;
#655 = AXIS2_PLACEMENT_3D ( 'NONE', #667, #310, #880 ) ;
#656 = PLANE ( 'NONE',  #746 ) ;
#657 = DIRECTION ( 'NONE',  ( 1.000000000000000000, 0.000000000000000000, 0.000000000000000000 ) ) ;
#658 = CYLINDRICAL_SURFACE ( 'NONE', #729, 38.50000000000000711 ) ;
#659 = EDGE_LOOP ( 'NONE', ( #676, #305, #754, #615 ) ) ;
#660 = ORIENTED_EDGE ( 'NONE', *, *, #871, .F. ) ;
#661 = DIRECTION ( 'NONE',  ( 1.000000000000000000, 0.000000000000000000, -0.000000000000000000 ) ) ;
#662 = CARTESIAN_POINT ( 'NONE',  ( 0.000000000000000000, 0.005000000000000446795, 3.499999999999999112 ) ) ;
#663 = CARTESIAN_POINT ( 'NONE',  ( 112.9668282529391092, -0.9849999999999993205, 12.03317174706097958 ) ) ;
#664 = PRODUCT_DEFINITION ( 'UNKNOWN', '', #712, #110 ) ;
#665 = ORIENTED_EDGE ( 'NONE', *, *, #218, .F. ) ;
#666 = ADVANCED_FACE ( 'NONE', ( #803 ), #1, .T. ) ;
#667 = CARTESIAN_POINT ( 'NONE',  ( 0.000000000000000000, 0.005000000000000446795, 2.520000000000000018 ) ) ;
#668 = CARTESIAN_POINT ( 'NONE',  ( 90.00000000000000000, 0.9850000000000002087, -3.500000000000000888 ) ) ;
#669 = LINE ( 'NONE', #388, #355 ) ;
#670 = AXIS2_PLACEMENT_3D ( 'NONE', #354, #28, #855 ) ;
#671 = VERTEX_POINT ( 'NONE', #780 ) ;
#672 = DIRECTION ( 'NONE',  ( 0.000000000000000000, 1.000000000000000000, -0.000000000000000000 ) ) ;
#673 = VERTEX_POINT ( 'NONE', #205 ) ;
#674 = LINE ( 'NONE', #230, #206 ) ;
#675 = ORIENTED_EDGE ( 'NONE', *, *, #562, .T. ) ;
#676 = ORIENTED_EDGE ( 'NONE', *, *, #834, .F. ) ;
#677 = LINE ( 'NONE', #325, #130 ) ;
#678 = EDGE_CURVE ( 'NONE', #106, #673, #777, .T. ) ;
#679 = VERTEX_POINT ( 'NONE', #187 ) ;
#680 = VECTOR ( 'NONE', #262, 1000.000000000000114 ) ;
#681 = VERTEX_POINT ( 'NONE', #702 ) ;
#682 = CIRCLE ( 'NONE', #779, 0.9799999999999988720 ) ;
#683 = CARTESIAN_POINT ( 'NONE',  ( 0.000000000000000000, -0.004999999999999952399, -2.520000000000001350 ) ) ;
#684 = EDGE_LOOP ( 'NONE', ( #829, #832, #407, #609 ) ) ;
#685 = EDGE_CURVE ( 'NONE', #679, #673, #479, .T. ) ;
#686 = ORIENTED_EDGE ( 'NONE', *, *, #421, .T. ) ;
#687 = ORIENTED_EDGE ( 'NONE', *, *, #637, .F. ) ;
#688 = CARTESIAN_POINT ( 'NONE',  ( 116.5306464301193188, 0.9850000000000002087, 8.469353569880784249 ) ) ;
#689 = CYLINDRICAL_SURFACE ( 'NONE', #552, 0.9799999999999988720 ) ;
#690 = AXIS2_PLACEMENT_3D ( 'NONE', #610, #446, #895 ) ;
#691 = EDGE_CURVE ( 'NONE', #813, #856, #836, .T. ) ;
#692 = CARTESIAN_POINT ( 'NONE',  ( 5.551115123125782702E-14, 1.005000000000000782, -0.3000000000000001554 ) ) ;
#693 = CARTESIAN_POINT ( 'NONE',  ( 0.000000000000000000, 0.9850000000000002087, -2.520000000000001350 ) ) ;
#694 = PLANE ( 'NONE',  #415 ) ;
#695 = EDGE_LOOP ( 'NONE', ( #14, #625 ) ) ;
#696 = ORIENTED_EDGE ( 'NONE', *, *, #706, .F. ) ;
#697 = AXIS2_PLACEMENT_3D ( 'NONE', #150, #767, #425 ) ;
#698 = DIRECTION ( 'NONE',  ( -0.7969196336751507292, 0.6040853395531655678, -0.000000000000000000 ) ) ;
#699 = AXIS2_PLACEMENT_3D ( 'NONE', #576, #515, #727 ) ;
#700 = ADVANCED_FACE ( 'NONE', ( #286 ), #136, .T. ) ;
#701 = CIRCLE ( 'NONE', #283, 38.50000000000000711 ) ;
#702 = CARTESIAN_POINT ( 'NONE',  ( 116.5306464301193188, -0.9849999999999997646, 8.469353569880784249 ) ) ;
#703 = CYLINDRICAL_SURFACE ( 'NONE', #343, 0.9799999999999988720 ) ;
#704 = ADVANCED_FACE ( 'NONE', ( #774 ), #694, .T. ) ;
#705 = PLANE ( 'NONE',  #944 ) ;
#706 = EDGE_CURVE ( 'NONE', #106, #172, #118, .T. ) ;
#707 = LINE ( 'NONE', #575, #311 ) ;
#708 = LINE ( 'NONE', #46, #807 ) ;
#709 = DIRECTION ( 'NONE',  ( 0.000000000000000000, 0.000000000000000000, -1.000000000000000000 ) ) ;
#710 = ADVANCED_FACE ( 'NONE', ( #195 ), #689, .T. ) ;
#711 = DIRECTION ( 'NONE',  ( 0.000000000000000000, 0.000000000000000000, 1.000000000000000000 ) ) ;
#712 = PRODUCT_DEFINITION_FORMATION_WITH_SPECIFIED_SOURCE ( 'ANY', '', #906, .NOT_KNOWN. ) ;
#713 = AXIS2_PLACEMENT_3D ( 'NONE', #941, #224, #512 ) ;
#714 = FILL_AREA_STYLE ('',( #505 ) ) ;
#715 = VECTOR ( 'NONE', #203, 1000.000000000000000 ) ;
#716 = EDGE_CURVE ( 'NONE', #335, #79, #7, .T. ) ;
#717 = ORIENTED_EDGE ( 'NONE', *, *, #103, .T. ) ;
#718 = DIRECTION ( 'NONE',  ( -0.7969196336751507292, 0.6040853395531655678, -0.000000000000000000 ) ) ;
#719 = DIRECTION ( 'NONE',  ( 0.000000000000000000, 1.000000000000000000, 0.000000000000000000 ) ) ;
#720 = CARTESIAN_POINT ( 'NONE',  ( 117.2236110756821290, -0.9849999999999997646, 7.776388924317970464 ) ) ;
#721 = CARTESIAN_POINT ( 'NONE',  ( 128.9128387290710691, 0.9850000000000002087, 20.85154586883255234 ) ) ;
#722 = DIRECTION ( 'NONE',  ( 0.7071067811865465735, 0.000000000000000000, 0.7071067811865483499 ) ) ;
#723 = EDGE_CURVE ( 'NONE', #80, #57, #919, .T. ) ;
#724 = VECTOR ( 'NONE', #452, 1000.000000000000000 ) ;
#725 = FACE_OUTER_BOUND ( 'NONE', #197, .T. ) ;
#726 = DIRECTION ( 'NONE',  ( 0.7071067811865489050, -6.195440985631455317E-17, -0.7071067811865462405 ) ) ;
#727 = DIRECTION ( 'NONE',  ( 0.000000000000000000, 0.000000000000000000, 1.000000000000000000 ) ) ;
#728 = FACE_OUTER_BOUND ( 'NONE', #254, .T. ) ;
#729 = AXIS2_PLACEMENT_3D ( 'NONE', #167, #458, #162 ) ;
#730 = CIRCLE ( 'NONE', #445, 0.5000000000000000000 ) ;
#731 = ORIENTED_EDGE ( 'NONE', *, *, #321, .F. ) ;
#732 = CYLINDRICAL_SURFACE ( 'NONE', #655, 0.9799999999999999822 ) ;
#733 = CARTESIAN_POINT ( 'NONE',  ( 90.00000000000000000, 0.9850000000000002087, 35.00000000000000000 ) ) ;
#734 = CARTESIAN_POINT ( 'NONE',  ( 112.9668282529391092, 0.9850000000000002087, 12.03317174706097958 ) ) ;
#735 = PRODUCT_RELATED_PRODUCT_CATEGORY ( 'part', '', ( #906 ) ) ;
#736 = EDGE_CURVE ( 'NONE', #430, #536, #571, .T. ) ;
#737 = ORIENTED_EDGE ( 'NONE', *, *, #532, .T. ) ;
#738 = DIRECTION ( 'NONE',  ( 0.000000000000000000, 0.000000000000000000, 1.000000000000000000 ) ) ;
#739 = DIRECTION ( 'NONE',  ( 1.000000000000000000, 0.000000000000000000, -0.000000000000000000 ) ) ;
#740 = DIRECTION ( 'NONE',  ( 0.000000000000000000, 1.000000000000000000, -0.000000000000000000 ) ) ;
#741 = ORIENTED_EDGE ( 'NONE', *, *, #141, .F. ) ;
#742 = CARTESIAN_POINT ( 'NONE',  ( 112.2738636073762848, 0.005000000000000229955, 12.72613639262379515 ) ) ;
#743 =( LENGTH_UNIT ( ) NAMED_UNIT ( * ) SI_UNIT ( .MILLI., .METRE. ) );
#744 = AXIS2_PLACEMENT_3D ( 'NONE', #91, #239, #396 ) ;
#745 = CIRCLE ( 'NONE', #35, 0.9799999999999988720 ) ;
#746 = AXIS2_PLACEMENT_3D ( 'NONE', #302, #647, #142 ) ;
#747 = EDGE_CURVE ( 'NONE', #222, #80, #297, .T. ) ;
#748 = ORIENTED_EDGE ( 'NONE', *, *, #232, .F. ) ;
#749 = DIRECTION ( 'NONE',  ( 0.7071067811865466846, 0.000000000000000000, 0.7071067811865484609 ) ) ;
#750 = PLANE ( 'NONE',  #442 ) ;
#751 = APPLICATION_PROTOCOL_DEFINITION ( 'draft international standard', 'automotive_design', 1998, #812 ) ;
#752 = ORIENTED_EDGE ( 'NONE', *, *, #317, .F. ) ;
#753 = LINE ( 'NONE', #662, #290 ) ;
#754 = ORIENTED_EDGE ( 'NONE', *, *, #238, .T. ) ;
#755 = CARTESIAN_POINT ( 'NONE',  ( 0.3020426697766380730, 1.903459816837576479, 0.2999999999999998224 ) ) ;
#756 = LINE ( 'NONE', #553, #282 ) ;
#757 = ADVANCED_FACE ( 'NONE', ( #841 ), #924, .F. ) ;
#758 = ORIENTED_EDGE ( 'NONE', *, *, #11, .F. ) ;
#759 = VECTOR ( 'NONE', #294, 1000.000000000000000 ) ;
#760 = VERTEX_POINT ( 'NONE', #556 ) ;
#761 = PRESENTATION_LAYER_ASSIGNMENT (  '', '', ( #36 ) ) ;
#762 = ORIENTED_EDGE ( 'NONE', *, *, #494, .T. ) ;
#763 = VECTOR ( 'NONE', #719, 1000.000000000000000 ) ;
#764 = LINE ( 'NONE', #483, #456 ) ;
#765 = ORIENTED_EDGE ( 'NONE', *, *, #94, .F. ) ;
#766 = ORIENTED_EDGE ( 'NONE', *, *, #475, .F. ) ;
#767 = DIRECTION ( 'NONE',  ( 0.7071067811865466846, 0.000000000000000000, 0.7071067811865484609 ) ) ;
#768 = CARTESIAN_POINT ( 'NONE',  ( 90.00000000000000000, -0.9849999999999995426, -3.500000000000000888 ) ) ;
#769 = CARTESIAN_POINT ( 'NONE',  ( 0.000000000000000000, -0.9849999999999997646, -3.500000000000000888 ) ) ;
#770 = ORIENTED_EDGE ( 'NONE', *, *, #158, .T. ) ;
#771 = VECTOR ( 'NONE', #599, 1000.000000000000000 ) ;
#772 = ORIENTED_EDGE ( 'NONE', *, *, #716, .F. ) ;
#773 = LINE ( 'NONE', #413, #400 ) ;
#774 = FACE_OUTER_BOUND ( 'NONE', #268, .T. ) ;
#775 = ADVANCED_FACE ( 'NONE', ( #422 ), #705, .T. ) ;
#776 = FACE_OUTER_BOUND ( 'NONE', #291, .T. ) ;
#777 = CIRCLE ( 'NONE', #507, 0.9799999999999999822 ) ;
#778 = DIRECTION ( 'NONE',  ( 0.000000000000000000, 0.000000000000000000, -1.000000000000000000 ) ) ;
#779 = AXIS2_PLACEMENT_3D ( 'NONE', #932, #782, #293 ) ;
#780 = CARTESIAN_POINT ( 'NONE',  ( 89.99999999999997158, 0.9850000000000002087, -2.520000000000001350 ) ) ;
#781 = LINE ( 'NONE', #59, #267 ) ;
#782 = DIRECTION ( 'NONE',  ( 0.7071067811865466846, 0.000000000000000000, 0.7071067811865484609 ) ) ;
#783 = ADVANCED_FACE ( 'NONE', ( #281 ), #47, .T. ) ;
#784 = CARTESIAN_POINT ( 'NONE',  ( 5.551115123125782702E-14, 1.505000000000000782, -0.3000000000000001554 ) ) ;
#785 = CARTESIAN_POINT ( 'NONE',  ( 0.000000000000000000, -0.9849999999999997646, -2.520000000000001350 ) ) ;
#786 = CARTESIAN_POINT ( 'NONE',  ( 124.6560559063280351, 0.005000000000000229955, 25.10832869157556857 ) ) ;
#787 = LINE ( 'NONE', #304, #52 ) ;
#788 = ADVANCED_FACE ( 'NONE', ( #641, #109 ), #860, .F. ) ;
#789 = ORIENTED_EDGE ( 'NONE', *, *, #893, .F. ) ;
#790 = LINE ( 'NONE', #63, #229 ) ;
#791 = LINE ( 'NONE', #65, #854 ) ;
#792 = VECTOR ( 'NONE', #347, 1000.000000000000000 ) ;
#793 = AXIS2_PLACEMENT_3D ( 'NONE', #126, #67, #639 ) ;
#794 = EDGE_CURVE ( 'NONE', #119, #164, #745, .T. ) ;
#795 = DIRECTION ( 'NONE',  ( 1.000000000000000000, -0.000000000000000000, -0.000000000000000000 ) ) ;
#796 = DIRECTION ( 'NONE',  ( 0.000000000000000000, 0.000000000000000000, 1.000000000000000000 ) ) ;
#797 = DIRECTION ( 'NONE',  ( 0.7071067811865475727, 0.000000000000000000, -0.7071067811865475727 ) ) ;
#798 = DIRECTION ( 'NONE',  ( 1.000000000000000000, 0.000000000000000000, 0.000000000000000000 ) ) ;
#799 = DIRECTION ( 'NONE',  ( -0.7071067811865465735, -0.000000000000000000, -0.7071067811865483499 ) ) ;
#800 = DIRECTION ( 'NONE',  ( -0.7071067811865483499, 0.000000000000000000, 0.7071067811865465735 ) ) ;
#801 = ORIENTED_EDGE ( 'NONE', *, *, #351, .F. ) ;
#802 = LINE ( 'NONE', #148, #358 ) ;
#803 = FACE_OUTER_BOUND ( 'NONE', #460, .T. ) ;
#804 = DIRECTION ( 'NONE',  ( 0.7071067811865466846, 0.000000000000000000, 0.7071067811865484609 ) ) ;
#805 = EDGE_CURVE ( 'NONE', #24, #101, #537, .T. ) ;
#806 = AXIS2_PLACEMENT_3D ( 'NONE', #375, #366, #210 ) ;
#807 = VECTOR ( 'NONE', #799, 1000.000000000000114 ) ;
#808 = ORIENTED_EDGE ( 'NONE', *, *, #593, .T. ) ;
#809 = CYLINDRICAL_SURFACE ( 'NONE', #122, 0.9799999999999999822 ) ;
#810 = DIRECTION ( 'NONE',  ( 0.000000000000000000, 0.000000000000000000, 1.000000000000000000 ) ) ;
#811 = EDGE_CURVE ( 'NONE', #496, #258, #386, .T. ) ;
#812 = APPLICATION_CONTEXT ( 'automotive_design' ) ;
#813 = VERTEX_POINT ( 'NONE', #663 ) ;
#814 = CARTESIAN_POINT ( 'NONE',  ( 5.551115123125782702E-14, 1.505000000000000782, 0.2999999999999998224 ) ) ;
#815 = CARTESIAN_POINT ( 'NONE',  ( 90.00000000000000000, -0.9849999999999995426, 35.00000000000000000 ) ) ;
#816 = EDGE_CURVE ( 'NONE', #828, #831, #587, .T. ) ;
#817 = ORIENTED_EDGE ( 'NONE', *, *, #365, .T. ) ;
#818 = ORIENTED_EDGE ( 'NONE', *, *, #936, .F. ) ;
#819 = CARTESIAN_POINT ( 'NONE',  ( 0.3020426697766380730, 1.903459816837576479, -0.3000000000000001554 ) ) ;
#820 = FACE_OUTER_BOUND ( 'NONE', #659, .T. ) ;
#821 = AXIS2_PLACEMENT_3D ( 'NONE', #361, #140, #428 ) ;
#822 = CIRCLE ( 'NONE', #521, 0.9799999999999988720 ) ;
#823 = AXIS2_PLACEMENT_3D ( 'NONE', #814, #306, #739 ) ;
#824 = ORIENTED_EDGE ( 'NONE', *, *, #871, .T. ) ;
#825 = EDGE_CURVE ( 'NONE', #477, #760, #120, .T. ) ;
#826 = DIRECTION ( 'NONE',  ( 0.000000000000000000, 0.000000000000000000, 1.000000000000000000 ) ) ;
#827 =( NAMED_UNIT ( * ) SI_UNIT ( $, .STERADIAN. ) SOLID_ANGLE_UNIT ( ) );
#828 = VERTEX_POINT ( 'NONE', #734 ) ;
#829 = ORIENTED_EDGE ( 'NONE', *, *, #736, .F. ) ;
#830 = CARTESIAN_POINT ( 'NONE',  ( 0.000000000000000000, -0.9849999999999997646, -2.520000000000001350 ) ) ;
#831 = VERTEX_POINT ( 'NONE', #433 ) ;
#832 = ORIENTED_EDGE ( 'NONE', *, *, #903, .F. ) ;
#833 = DIRECTION ( 'NONE',  ( 0.000000000000000000, 1.000000000000000000, 0.000000000000000000 ) ) ;
#834 = EDGE_CURVE ( 'NONE', #419, #25, #77, .T. ) ;
#835 = SURFACE_SIDE_STYLE ('',( #320 ) ) ;
#836 = CIRCLE ( 'NONE', #913, 32.48000000000001108 ) ;
#837 = EDGE_LOOP ( 'NONE', ( #116, #687, #772, #741 ) ) ;
#838 = AXIS2_PLACEMENT_3D ( 'NONE', #875, #711, #438 ) ;
#839 = EDGE_LOOP ( 'NONE', ( #758, #448, #207, #517 ) ) ;
#840 = CARTESIAN_POINT ( 'NONE',  ( -0.2499999999999444333, 1.505000000000000782, -0.3000000000000001554 ) ) ;
#841 = FACE_OUTER_BOUND ( 'NONE', #135, .T. ) ;
#842 = ADVANCED_FACE ( 'NONE', ( #725 ), #882, .T. ) ;
#843 = ORIENTED_EDGE ( 'NONE', *, *, #555, .T. ) ;
#844 = CARTESIAN_POINT ( 'NONE',  ( 129.6058033746338651, -0.004999999999999796274, 20.15858122326973856 ) ) ;
#845 = DIRECTION ( 'NONE',  ( 0.000000000000000000, 0.000000000000000000, 1.000000000000000000 ) ) ;
#846 = ORIENTED_EDGE ( 'NONE', *, *, #723, .F. ) ;
#847 = FACE_OUTER_BOUND ( 'NONE', #412, .T. ) ;
#848 = CARTESIAN_POINT ( 'NONE',  ( 0.000000000000000000, 0.000000000000000000, 0.000000000000000000 ) ) ;
#849 = DIRECTION ( 'NONE',  ( 1.000000000000000000, 0.000000000000000000, 0.000000000000000000 ) ) ;
#850 = EDGE_CURVE ( 'NONE', #93, #403, #822, .T. ) ;
#851 = ORIENTED_EDGE ( 'NONE', *, *, #421, .F. ) ;
#852 =( NAMED_UNIT ( * ) PLANE_ANGLE_UNIT ( ) SI_UNIT ( $, .RADIAN. ) );
#853 = AXIS2_PLACEMENT_3D ( 'NONE', #261, #112, #409 ) ;
#854 = VECTOR ( 'NONE', #138, 1000.000000000000000 ) ;
#855 = DIRECTION ( 'NONE',  ( 0.000000000000000000, 0.000000000000000000, 1.000000000000000000 ) ) ;
#856 = VERTEX_POINT ( 'NONE', #231 ) ;
#857 = FACE_OUTER_BOUND ( 'NONE', #329, .T. ) ;
#858 = SURFACE_STYLE_FILL_AREA ( #640 ) ;
#859 = EDGE_CURVE ( 'NONE', #101, #93, #787, .T. ) ;
#860 = PLANE ( 'NONE',  #181 ) ;
#861 = ORIENTED_EDGE ( 'NONE', *, *, #440, .F. ) ;
#862 = APPLICATION_CONTEXT ( 'automotive_design' ) ;
#863 = DIRECTION ( 'NONE',  ( -0.7969196336751507292, 0.6040853395531655678, 0.000000000000000000 ) ) ;
#864 = DIRECTION ( 'NONE',  ( 0.7071067811865470176, 0.000000000000000000, -0.7071067811865479058 ) ) ;
#865 = CARTESIAN_POINT ( 'NONE',  ( 128.9128387290710691, 0.005000000000000229955, 20.85154586883255234 ) ) ;
#866 = ORIENTED_EDGE ( 'NONE', *, *, #653, .T. ) ;
#867 = CARTESIAN_POINT ( 'NONE',  ( 0.3020426697766381285, 1.903459816837576479, -0.3000000000000001554 ) ) ;
#868 = CARTESIAN_POINT ( 'NONE',  ( 5.551115123125782702E-14, 1.505000000000000782, 0.2999999999999998224 ) ) ;
#869 = VECTOR ( 'NONE', #61, 1000.000000000000000 ) ;
#870 = TOROIDAL_SURFACE ( 'NONE', #55, 37.52000000000000313, 0.9799999999999999822 ) ;
#871 = EDGE_CURVE ( 'NONE', #159, #172, #471, .T. ) ;
#872 = CARTESIAN_POINT ( 'NONE',  ( 0.000000000000000000, -0.9849999999999993205, 3.499999999999999112 ) ) ;
#873 = CARTESIAN_POINT ( 'NONE',  ( 5.551115123125782702E-14, 1.505000000000000782, 0.2999999999999998224 ) ) ;
#874 = DIRECTION ( 'NONE',  ( -0.000000000000000000, -1.000000000000000000, 0.000000000000000000 ) ) ;
#875 = CARTESIAN_POINT ( 'NONE',  ( 5.551115123125782702E-14, 1.505000000000000782, -0.3000000000000001554 ) ) ;
#876 = LINE ( 'NONE', #223, #401 ) ;
#877 =( NAMED_UNIT ( * ) PLANE_ANGLE_UNIT ( ) SI_UNIT ( $, .RADIAN. ) );
#878 = ORIENTED_EDGE ( 'NONE', *, *, #794, .F. ) ;
#879 = EDGE_LOOP ( 'NONE', ( #897, #611, #603, #97 ) ) ;
#880 = DIRECTION ( 'NONE',  ( 0.000000000000000000, 0.000000000000000000, -1.000000000000000000 ) ) ;
#881 = DIRECTION ( 'NONE',  ( 0.000000000000000000, 0.000000000000000000, -1.000000000000000000 ) ) ;
#882 = PLANE ( 'NONE',  #247 ) ;
#883 = CIRCLE ( 'NONE', #821, 0.2499999999999999445 ) ;
#884 = AXIS2_PLACEMENT_3D ( 'NONE', #931, #331, #405 ) ;
#885 = AXIS2_PLACEMENT_3D ( 'NONE', #668, #900, #826 ) ;
#886 = EDGE_LOOP ( 'NONE', ( #696, #26, #551, #770, #362, #184, #907, #824 ) ) ;
#887 = DIRECTION ( 'NONE',  ( 0.000000000000000000, 0.000000000000000000, 1.000000000000000000 ) ) ;
#888 = CYLINDRICAL_SURFACE ( 'NONE', #374, 0.9799999999999999822 ) ;
#889 = DIRECTION ( 'NONE',  ( 0.000000000000000000, -1.000000000000000000, -0.000000000000000000 ) ) ;
#890 =( NAMED_UNIT ( * ) PLANE_ANGLE_UNIT ( ) SI_UNIT ( $, .RADIAN. ) );
#891 = ORIENTED_EDGE ( 'NONE', *, *, #58, .F. ) ;
#892 = LINE ( 'NONE', #13, #241 ) ;
#893 = EDGE_CURVE ( 'NONE', #57, #193, #883, .T. ) ;
#894 = ORIENTED_EDGE ( 'NONE', *, *, #466, .T. ) ;
#895 = DIRECTION ( 'NONE',  ( 0.7071067811865475727, 0.000000000000000000, -0.7071067811865475727 ) ) ;
#896 = AXIS2_PLACEMENT_3D ( 'NONE', #578, #623, #411 ) ;
#897 = ORIENTED_EDGE ( 'NONE', *, *, #440, .T. ) ;
#898 = VECTOR ( 'NONE', #722, 1000.000000000000114 ) ;
#899 = ORIENTED_EDGE ( 'NONE', *, *, #548, .T. ) ;
#900 = DIRECTION ( 'NONE',  ( 0.000000000000000000, 1.000000000000000000, -0.000000000000000000 ) ) ;
#901 = ADVANCED_FACE ( 'NONE', ( #728 ), #652, .T. ) ;
#902 = ORIENTED_EDGE ( 'NONE', *, *, #805, .F. ) ;
#903 = EDGE_CURVE ( 'NONE', #15, #430, #379, .T. ) ;
#904 = EDGE_LOOP ( 'NONE', ( #509, #686, #21, #344 ) ) ;
#905 = CARTESIAN_POINT ( 'NONE',  ( 112.2738636073762848, -0.004999999999999362593, 12.72613639262379515 ) ) ;
#906 = PRODUCT ( 'handle2', 'handle2', '', ( #327 ) ) ;
#907 = ORIENTED_EDGE ( 'NONE', *, *, #429, .F. ) ;
#908 = ORIENTED_EDGE ( 'NONE', *, *, #244, .T. ) ;
#909 = PLANE ( 'NONE',  #602 ) ;
#910 = DIRECTION ( 'NONE',  ( 0.7071067811865466846, 0.000000000000000000, 0.7071067811865484609 ) ) ;
#911 = AXIS2_PLACEMENT_3D ( 'NONE', #237, #740, #96 ) ;
#912 = UNCERTAINTY_MEASURE_WITH_UNIT (LENGTH_MEASURE( 1.000000000000000082E-05 ), #586, 'distance_accuracy_value', 'NONE');
#913 = AXIS2_PLACEMENT_3D ( 'NONE', #41, #485, #934 ) ;
#914 = MANIFOLD_SOLID_BREP ( 'Boss-Extrude1', #654 ) ;
#915 = CIRCLE ( 'NONE', #884, 0.9799999999999999822 ) ;
#916 = PLANE ( 'NONE',  #92 ) ;
#917 = PLANE ( 'NONE',  #8 ) ;
#918 = ADVANCED_FACE ( 'NONE', ( #820 ), #658, .T. ) ;
#919 = LINE ( 'NONE', #489, #490 ) ;
#920 = ORIENTED_EDGE ( 'NONE', *, *, #825, .F. ) ;
#921 = ORIENTED_EDGE ( 'NONE', *, *, #893, .T. ) ;
#922 = FACE_OUTER_BOUND ( 'NONE', #684, .T. ) ;
#923 = DIRECTION ( 'NONE',  ( -0.7071067811865465735, -0.000000000000000000, -0.7071067811865483499 ) ) ;
#924 = CYLINDRICAL_SURFACE ( 'NONE', #626, 0.2499999999999999445 ) ;
#925 = EDGE_LOOP ( 'NONE', ( #660, #549, #920, #397 ) ) ;
#926 = ORIENTED_EDGE ( 'NONE', *, *, #251, .T. ) ;
#927 = DIRECTION ( 'NONE',  ( 0.000000000000000000, 1.000000000000000000, -0.000000000000000000 ) ) ;
#928 = DIRECTION ( 'NONE',  ( -0.7071067811865465735, 0.000000000000000000, -0.7071067811865483499 ) ) ;
#929 = ADVANCED_FACE ( 'NONE', ( #157 ), #750, .T. ) ;
#930 = ORIENTED_EDGE ( 'NONE', *, *, #548, .F. ) ;
#931 = CARTESIAN_POINT ( 'NONE',  ( 0.000000000000000000, 0.005000000000000446795, 2.520000000000000018 ) ) ;
#932 = CARTESIAN_POINT ( 'NONE',  ( 125.3490205518908454, -0.004999999999999362593, 24.41536404601275123 ) ) ;
#933 = VECTOR ( 'NONE', #661, 1000.000000000000000 ) ;
#934 = DIRECTION ( 'NONE',  ( 7.263620465912736718E-15, 0.000000000000000000, -1.000000000000000000 ) ) ;
#935 = VERTEX_POINT ( 'NONE', #89 ) ;
#936 = EDGE_CURVE ( 'NONE', #178, #671, #17, .T. ) ;
#937 = FACE_OUTER_BOUND ( 'NONE', #579, .T. ) ;
#938 = SURFACE_STYLE_USAGE ( .BOTH. , #645 ) ;
#939 = CARTESIAN_POINT ( 'NONE',  ( 125.3490205518908454, 0.9850000000000002087, 24.41536404601275478 ) ) ;
#940 = EDGE_CURVE ( 'NONE', #403, #631, #669, .T. ) ;
#941 = CARTESIAN_POINT ( 'NONE',  ( 112.9668282529391092, 0.005000000000000229955, 12.03317174706097958 ) ) ;
#942 = CARTESIAN_POINT ( 'NONE',  ( 0.000000000000000000, 0.9850000000000002087, 2.520000000000000018 ) ) ;
#943 = CARTESIAN_POINT ( 'NONE',  ( 0.000000000000000000, 0.9850000000000002087, 2.520000000000000018 ) ) ;
#944 = AXIS2_PLACEMENT_3D ( 'NONE', #350, #636, #928 ) ;
#945 = CARTESIAN_POINT ( 'NONE',  ( 125.3490205518908454, 0.005000000000000229955, 24.41536404601275123 ) ) ;
#946 = CIRCLE ( 'NONE', #491, 0.2499999999999999445 ) ;
#947 = CARTESIAN_POINT ( 'NONE',  ( 90.00000000000000000, 0.000000000000000000, 35.00000000000000000 ) ) ;
#948 = DIRECTION ( 'NONE',  ( 0.000000000000000000, 0.000000000000000000, 1.000000000000000000 ) ) ;
#949 = ORIENTED_EDGE ( 'NONE', *, *, #527, .T. ) ;
#950 = PLANE ( 'NONE',  #823 ) ;
ENDSEC;
END-ISO-10303-21;
